<svg width="89" height="89" viewBox="0 0 89 89" fill="none" xmlns="http://www.w3.org/2000/svg">
<path d="M71.2371 20.1202C70.3125 19.287 68.5758 19.3884 66.6759 19.7407L66.6796 19.737C62.9243 20.2104 62.0504 14.0385 60.101 11.8407C59.3618 11.0244 58.4386 10.3963 57.408 10.0085C56.3773 9.62063 55.269 9.48428 54.1751 9.61073C50.0242 10.2325 48.3827 15.3797 48.1639 16.0632C47.5175 18.1687 47.5106 20.4187 48.1441 22.5281C48.7252 24.5175 48.5999 26.6467 47.7893 28.5541C43.1158 38.8824 36.0334 47.9393 27.1364 54.9649C24.5026 54.8498 21.8987 55.5607 19.6888 56.9983C18.2463 57.9464 15.4366 59.7944 15.3315 62.8599C15.3673 63.8008 15.6024 64.7234 16.0213 65.5666C16.4403 66.4098 17.0335 67.1544 17.7617 67.7512C18.6901 68.5868 20.4317 68.483 22.3353 68.1295L22.3205 68.1356C26.0758 67.6622 26.9498 73.8341 28.8991 76.0307C29.6383 76.8469 30.5615 77.4751 31.5922 77.8629C32.6228 78.2507 33.7311 78.3871 34.825 78.2606C38.9759 77.6389 40.6174 72.4917 40.8362 71.8081C41.4826 69.7026 41.4895 67.4527 40.856 65.3433C40.4288 63.989 40.4331 62.5354 40.8684 61.1838L41.3257 61.0156L52.0094 43.6532L52.426 42.9734C55.1936 39.2951 58.3244 35.9046 61.771 32.8533C64.4295 32.9983 67.0666 32.3062 69.3113 30.8743C70.7538 29.925 73.5635 28.0782 73.6686 25.0127C73.633 24.0716 73.398 23.1488 72.979 22.3054C72.5601 21.4619 71.9655 20.7171 71.2371 20.1202Z" fill="white"/>
<path d="M27.7188 73.1481C26.5494 75.0023 30.4209 81.2817 38.2912 76.6463C40.0342 75.6204 40.578 71.7451 41.7338 69.4324C42.3296 68.242 40.0774 62.6276 40.6942 61.3544C46.7227 48.9129 56.5387 37.6124 61.7724 33.1525C64.4306 33.2969 67.0673 32.6043 69.3114 31.1723C70.754 30.2242 73.5637 28.3762 73.6687 25.3106C73.633 24.3698 73.3979 23.4472 72.9789 22.604C72.56 21.7608 71.9668 21.0161 71.2385 20.4193C68.6748 18.1115 66.456 19.1894 66.2545 19.564C66.2545 19.564 67.6489 22.2624 63.9541 26.1055C55.1889 35.2205 40.5039 54.185 33.3888 68.6932C30.1502 75.294 27.7188 73.1481 27.7188 73.1481Z" fill="#D0CFCE"/>
<path d="M58.5792 20.5627C59.9352 22.936 68.6745 18.1115 71.2369 20.4193C71.9656 21.0161 72.5591 21.7609 72.9783 22.6043C73.3974 23.4478 73.6327 24.3706 73.6684 25.3118C73.5621 28.3774 70.7536 30.2254 69.3111 31.1735C67.0665 32.6057 64.4295 33.2983 61.7708 33.1537C52.7744 40.8176 44.4677 54.5434 41.3255 60.2418C40.4805 61.9152 40.3123 63.8496 40.8558 65.6436C41.4893 67.753 41.4824 70.003 40.836 72.1085C40.6172 72.7921 38.9757 77.9392 34.8248 78.561C33.7308 78.6873 32.6224 78.5508 31.5918 78.1627C30.5611 77.7747 29.6379 77.1463 28.8989 76.3298C26.9495 74.1333 26.0756 67.9614 22.3203 68.4348" stroke="black" stroke-width="3" stroke-linecap="round" stroke-linejoin="round"/>
<path d="M30.4208 67.9082C29.0647 65.5349 20.3254 70.3594 17.763 68.0516C17.0343 67.4548 16.4408 66.71 16.0216 65.8665C15.6025 65.0231 15.3673 64.1002 15.3315 63.1591C15.4366 60.0935 18.2463 58.2455 19.6888 57.2974C21.8987 55.8599 24.5026 55.1489 27.1364 55.264C36.033 48.2383 43.1149 39.1814 47.7881 28.8533C48.5987 26.9458 48.724 24.8166 48.1429 22.8272C47.5094 20.7178 47.5163 18.4679 48.1627 16.3624C48.3814 15.68 50.023 10.5316 54.1739 9.90987C55.2679 9.78357 56.3762 9.92012 57.4069 10.3082C58.4375 10.6962 59.3607 11.3246 60.0998 12.1411C62.0491 14.3376 62.9231 20.5095 66.6784 20.0361" stroke="black" stroke-width="3" stroke-linecap="round" stroke-linejoin="round"/>
</svg>
