<svg width="336" height="173" viewBox="0 0 336 173" fill="none" xmlns="http://www.w3.org/2000/svg">
<g filter="url(#filter0_d_64_118)">
<path d="M122.987 14.6924C141.291 7.37026 162.878 4.2728 184.264 5.94141C205.321 7.58438 224.853 13.7435 239.848 23.3555L240.558 23.8154C255.389 33.6043 264.285 46.2713 266.185 59.5059L266.204 59.6396L266.237 59.7695C266.6 61.1887 267.51 62.3355 268.618 63.1631C269.727 63.9907 271.075 64.5375 272.476 64.8164L272.535 64.8281L272.595 64.8369C288.297 67.1854 301.987 73.1867 311.187 81.5488V81.5498C320.257 89.7965 324.05 99.7028 322.355 109.332C320.648 119.034 313.399 128.292 301.499 135.081L301.487 135.088C272.045 152.1 219.334 160.15 166.233 159.667C113.147 159.184 60.5324 150.182 31.334 133.771C15.9271 125.11 6.96242 113.131 5.65625 100.697C5.02958 94.517 6.28464 88.2839 9.4082 82.3398C12.5398 76.3806 17.5021 70.8076 24.084 65.9883L24.085 65.9873C30.729 61.1198 38.7952 57.1095 47.8555 54.209L47.8564 54.21C56.954 51.3081 66.8821 49.6007 77.0596 49.1514C78.3862 49.1595 79.7221 48.9332 80.9316 48.4619C82.171 47.9789 83.3297 47.2184 84.1543 46.1572L84.2812 45.9932L84.3799 45.8105C91.2799 33.0303 104.818 21.9694 122.986 14.6914L122.987 14.6924Z" fill="white" stroke="black" stroke-width="5"/>
<path d="M272.964 62.3644C271.862 62.1449 270.875 61.7277 270.114 61.16C269.353 60.5923 268.85 59.8965 268.659 59.151C266.631 45.0194 257.182 31.7891 241.927 21.7236C226.432 11.5802 206.194 5.14454 184.458 3.44862C162.722 1.7527 140.748 4.89478 122.059 12.371C103.516 19.7986 89.4343 31.1871 82.1803 44.6232C81.6934 45.2497 80.9459 45.773 80.0243 46.1322C79.1026 46.4914 78.0447 46.6718 76.9731 46.6527C66.5845 47.1093 56.428 48.8513 47.0963 51.8279C37.8138 54.7993 29.4973 58.9231 22.6071 63.9711C15.773 68.975 10.5329 74.825 7.19498 81.177C3.85706 87.529 2.48871 94.2547 3.17037 100.959C4.58817 114.455 14.255 127.038 30.1085 135.951C89.6302 169.404 242.649 171.974 302.738 137.253C315.067 130.219 322.943 120.414 324.817 109.765C326.692 99.1165 322.43 88.3925 312.869 79.6997C303.222 70.9307 289.036 64.768 272.964 62.3644Z" fill="white" stroke="black" stroke-width="5" stroke-linecap="round" stroke-linejoin="round"/>
<path d="M73.2856 46.7032C103.936 46.7032 131.338 59.9626 139.999 72.0719Z" fill="white"/>
<path d="M73.2856 46.7032C103.936 46.7032 131.338 59.9626 139.999 72.0719" stroke="black" stroke-width="5" stroke-linecap="round" stroke-linejoin="round"/>
</g>
<defs>
<filter id="filter0_d_64_118" x="0.5" y="0.500031" width="335.251" height="172.188" filterUnits="userSpaceOnUse" color-interpolation-filters="sRGB">
<feFlood flood-opacity="0" result="BackgroundImageFix"/>
<feColorMatrix in="SourceAlpha" type="matrix" values="0 0 0 0 0 0 0 0 0 0 0 0 0 0 0 0 0 0 127 0" result="hardAlpha"/>
<feOffset dx="8" dy="8"/>
<feComposite in2="hardAlpha" operator="out"/>
<feColorMatrix type="matrix" values="0 0 0 0 1 0 0 0 0 1 0 0 0 0 1 0 0 0 1 0"/>
<feBlend mode="normal" in2="BackgroundImageFix" result="effect1_dropShadow_64_118"/>
<feBlend mode="normal" in="SourceGraphic" in2="effect1_dropShadow_64_118" result="shape"/>
</filter>
</defs>
</svg>
