<svg width="592" height="770" viewBox="0 0 592 770" fill="none" xmlns="http://www.w3.org/2000/svg">
<g filter="url(#filter0_d_27_156)">
<path d="M38.2091 87.6535C21.6613 43.615 30.9442 16.1907 43.1171 5L134.006 87.6535C89.2863 101.541 51.5082 93.4401 38.2091 87.6535Z" fill="black"/>
<path d="M156.609 108.209L169.046 119.519C190.466 95.4813 245.122 59.5662 292.384 108.209C299.456 115.487 306.108 122.297 312.335 128.641C347.728 164.696 369.41 185.721 376.51 192.331L292.384 271.616C268.704 289.197 250.757 306.74 237.646 323.89L189.905 276.15L160.301 246.548L130.697 216.945C78.2569 164.149 50.7798 121.108 38.2091 87.6535C51.5082 93.4401 89.2863 101.541 134.006 87.6535L156.609 108.209Z" fill="#E6CFA9"/>
<path d="M376.51 192.331C386.212 198.981 405.616 253.686 405.616 419.304C405.616 443.792 400.653 462.93 392.3 477.342C377.367 503.109 351.601 513.775 323.996 512.921C252.907 510.723 169.616 432.131 227.699 338.278C230.645 333.518 233.954 328.72 237.646 323.89C250.757 306.74 268.704 289.197 292.384 271.616L376.51 192.331Z" fill="#896C6C"/>
<path d="M189.905 276.15L237.646 323.89C233.954 328.72 230.645 333.518 227.699 338.278C169.616 432.131 252.907 510.723 323.996 512.921C289.965 536.04 239.266 594.197 308.708 641.872C319.362 648.801 345.028 662.592 371.97 669.312C359.066 667.316 336.656 668.47 315.704 684.074C240.273 690.093 217.162 721.662 215.345 738.258C216.892 748.635 217.16 758.67 216.723 766.5H115.41H14.0964C4.14648 696.854 64.3643 681.86 95.717 683.069V539.527C95.717 514.022 97.708 490.14 101.158 467.953C117.084 365.546 164.099 299.257 189.905 276.15Z" fill="#E6CFA9"/>
<path d="M392.3 477.342C436.53 522.075 460.436 586.641 472.423 646.018C474.98 658.685 476.995 671.117 478.549 683.069C481.168 703.214 482.478 721.999 482.869 738.258C482.974 742.59 483.013 746.743 482.994 750.695C463.334 726.426 416.188 676.695 384.887 671.928C382.731 671.6 380.57 671.212 378.409 670.772C376.688 670.221 374.514 669.705 371.97 669.312C345.028 662.592 319.362 648.801 308.708 641.872C239.266 594.197 289.965 536.04 323.996 512.921C351.601 513.775 377.367 503.109 392.3 477.342Z" fill="#896C6C"/>
<path d="M482.573 766.5H249.112H216.723C217.16 758.67 216.892 748.635 215.345 738.258C217.162 721.662 240.273 690.093 315.704 684.074C336.656 668.47 359.066 667.316 371.97 669.312C374.111 669.845 376.259 670.335 378.409 670.772C380.57 671.212 382.731 671.6 384.887 671.928C416.188 676.695 463.334 726.426 482.994 750.695C482.967 756.406 482.819 761.696 482.573 766.5Z" fill="#C1856D"/>
<path d="M478.549 683.069C517.634 667.178 590.156 616.221 567.562 539.527C595.053 596.357 616.602 715.664 482.869 738.258C482.478 721.999 481.168 703.214 478.549 683.069Z" fill="#896C6C"/>
<path d="M223.201 173.671L169.046 119.519M237.646 323.89L189.905 276.15M237.646 323.89C250.757 306.74 268.704 289.197 292.384 271.616M237.646 323.89C233.954 328.72 230.645 333.518 227.699 338.278M169.046 119.519L156.609 108.209L134.006 87.6535M169.046 119.519C190.466 95.4813 245.122 59.5662 292.384 108.209C299.456 115.487 306.108 122.297 312.335 128.641C347.728 164.696 369.41 185.721 376.509 192.331M376.509 192.331C386.212 198.981 405.616 253.686 405.616 419.304C405.616 443.792 400.653 462.93 392.3 477.342M376.509 192.331L292.384 271.616M292.384 271.616C262.035 294.148 241.103 316.619 227.699 338.278M189.905 276.15C164.099 299.257 117.084 365.546 101.158 467.953C97.708 490.14 95.717 514.022 95.717 539.527M189.905 276.15L160.301 246.548M95.717 539.527C95.717 682.758 95.717 694.902 95.717 683.069M95.717 539.527V683.069M95.717 683.069C64.3643 681.86 4.14648 696.853 14.0964 766.5H115.41M392.3 477.342C436.53 522.075 460.436 586.641 472.423 646.018C474.98 658.685 476.995 671.117 478.549 683.069M392.3 477.342C377.367 503.109 351.601 513.775 323.996 512.921M478.549 683.069C517.634 667.178 590.156 616.221 567.562 539.527C595.053 596.357 616.602 715.664 482.869 738.258M478.549 683.069C481.168 703.214 482.478 721.999 482.869 738.258M482.869 738.258C482.974 742.59 483.013 746.743 482.994 750.695M216.723 766.5H249.112H482.573C482.819 761.696 482.967 756.406 482.994 750.695M216.723 766.5C217.16 758.67 216.892 748.635 215.345 738.258M216.723 766.5H115.41M180.706 530.458L169.046 683.069C199.129 683.069 211.398 711.778 215.345 738.258M215.345 738.258C217.162 721.662 240.273 690.093 315.704 684.074M342.133 683.069C332.682 683.069 323.885 683.422 315.704 684.074M137.693 539.527L115.41 766.5M38.2091 87.6535C21.6612 43.615 30.9442 16.1907 43.1171 5L134.006 87.6535M38.2091 87.6535C50.7798 121.108 78.2569 164.149 130.697 216.945L160.301 246.548M38.2091 87.6535C51.5082 93.4401 89.2863 101.541 134.006 87.6535M323.996 512.921C289.965 536.04 239.266 594.197 308.708 641.872C319.362 648.801 345.028 662.592 371.97 669.312M323.996 512.921C252.907 510.723 169.616 432.131 227.699 338.278M482.994 750.695C463.334 726.426 416.188 676.695 384.887 671.928C382.731 671.6 380.57 671.212 378.409 670.772M378.409 670.772C376.688 670.221 374.514 669.705 371.97 669.312M378.409 670.772C376.259 670.335 374.111 669.845 371.97 669.312M315.704 684.074C336.656 668.47 359.066 667.316 371.97 669.312M160.301 246.548C164.339 249.938 186.407 254.683 242.375 246.548" stroke="black" stroke-width="6" stroke-linecap="round"/>
<circle cx="14.7821" cy="14.7821" r="14.2821" transform="matrix(-1 0 0 1 300.234 167.603)" fill="black" stroke="black"/>
<circle cx="10.7506" cy="10.7506" r="10.2506" transform="matrix(-1 0 0 1 245.585 129.08)" fill="black" stroke="black"/>
</g>
<defs>
<filter id="filter0_d_27_156" x="0.00012207" y="0.935013" width="591.157" height="768.565" filterUnits="userSpaceOnUse" color-interpolation-filters="sRGB">
<feFlood flood-opacity="0" result="BackgroundImageFix"/>
<feColorMatrix in="SourceAlpha" type="matrix" values="0 0 0 0 0 0 0 0 0 0 0 0 0 0 0 0 0 0 127 0" result="hardAlpha"/>
<feOffset dx="-10"/>
<feComposite in2="hardAlpha" operator="out"/>
<feColorMatrix type="matrix" values="0 0 0 0 0.901961 0 0 0 0 0.811765 0 0 0 0 0.662745 0 0 0 1 0"/>
<feBlend mode="normal" in2="BackgroundImageFix" result="effect1_dropShadow_27_156"/>
<feBlend mode="normal" in="SourceGraphic" in2="effect1_dropShadow_27_156" result="shape"/>
</filter>
</defs>
</svg>
