<svg width="108" height="101" viewBox="0 0 108 101" fill="none" xmlns="http://www.w3.org/2000/svg">
<path d="M22.7737 6.03061H85.1234C88.5944 6.03061 91.9238 7.40926 94.3782 9.86362C96.8326 12.318 98.2112 15.6475 98.2112 19.1185V73.6751C98.2111 77.146 96.8325 80.4747 94.3782 82.929C91.9238 85.3834 88.5944 86.7621 85.1234 86.7621H22.7737C19.3027 86.7621 15.9733 85.3834 13.5189 82.929C11.0646 80.4748 9.68596 77.146 9.68585 73.6751V19.1185C9.68585 15.6475 11.0645 12.318 13.5189 9.86362C15.9733 7.40922 19.3027 6.03061 22.7737 6.03061Z" fill="#E6CFA9" stroke="black" stroke-width="5"/>
<path d="M54.1943 48.7757C61.1281 48.7757 68.4253 50.1023 73.8975 53.3352C79.2263 56.4837 82.8691 61.4372 82.8691 69.1702C82.869 73.523 79.9059 80.0886 74.5527 85.6741C69.2653 91.1909 62.0829 95.2844 54.1943 95.2844C47.5914 95.2844 40.2988 92.2691 34.6416 87.3616C28.9862 82.4556 25.2735 75.9391 25.2734 69.1702C25.2734 61.6844 28.6148 56.739 33.7725 53.5432C39.0744 50.2581 46.4098 48.7757 54.1943 48.7757Z" fill="#C1856D" stroke="black" stroke-width="5"/>
<path d="M63.1703 81.3786V89.2624C63.1703 94.3301 59.0338 98.4528 53.9487 98.4528H53.9477C51.5062 98.4535 49.1646 97.4855 47.436 95.7614C45.8152 94.1449 44.8576 91.9879 44.7397 89.7126L44.727 89.2565V81.3786L53.9487 74.4811L63.1703 81.3786Z" fill="#CA0B4A" stroke="black" stroke-width="5"/>
<path d="M17.5361 2.5H33.3193C33.7543 2.49994 34.1812 2.61959 34.5527 2.8457C34.9242 3.07183 35.2261 3.39593 35.4258 3.78223C35.6255 4.16854 35.7148 4.6023 35.6846 5.03613C35.6542 5.46998 35.5054 5.88738 35.2539 6.24219L6.80664 46.3604C5.46892 48.2464 2.5 47.2995 2.5 44.9893V17.5361C2.5 13.5483 4.08449 9.7241 6.9043 6.9043C9.7241 4.08449 13.5483 2.5 17.5361 2.5ZM74.457 2.5H90.2402C94.228 2.5 98.0523 4.08453 100.872 6.9043C103.692 9.7241 105.276 13.5483 105.276 17.5361V44.9893C105.276 47.3015 102.304 48.2443 100.971 46.3623L100.97 46.3613L72.5225 6.24219C72.271 5.88739 72.1221 5.46996 72.0918 5.03613C72.0615 4.60231 72.1509 4.16855 72.3506 3.78223C72.5503 3.39595 72.8522 3.07184 73.2236 2.8457C73.5951 2.61962 74.0221 2.49996 74.457 2.5Z" fill="#C1856D" stroke="black" stroke-width="5"/>
<path d="M49.3815 52.7933H58.3522C58.3802 52.7987 58.4916 52.8232 58.654 52.9163C58.8456 53.0262 59.0068 53.1764 59.1091 53.3304C59.2019 53.4702 59.2432 53.6035 59.2429 53.7493C59.2425 53.8903 59.2018 54.1856 58.9157 54.6468C58.3976 55.3817 57.4738 56.4956 56.4274 57.4036C55.2475 58.4275 54.4186 58.7474 54.069 58.7474C53.6988 58.7471 52.8246 58.4084 51.5817 57.3724C50.4575 56.4352 49.454 55.2831 48.9011 54.5403H48.9001C48.7162 54.293 48.6642 54.0876 48.6559 53.927C48.6469 53.7506 48.6882 53.5506 48.7917 53.3499C48.8978 53.1442 49.0468 52.9832 49.1872 52.886C49.3273 52.7891 49.3992 52.7932 49.3815 52.7933ZM42.2575 33.3089C42.628 33.3089 42.9838 33.4561 43.2458 33.7181C43.5076 33.9799 43.6549 34.3351 43.655 34.7054V38.6028C43.6549 38.9732 43.5076 39.3282 43.2458 39.5901C42.9838 39.8521 42.628 39.9993 42.2575 39.9993C41.8872 39.9992 41.5321 39.852 41.2702 39.5901C41.0083 39.3282 40.8611 38.9732 40.861 38.6028V34.7054C40.8611 34.335 41.0083 33.9799 41.2702 33.7181C41.5321 33.4562 41.8872 33.309 42.2575 33.3089ZM65.6393 33.3089C66.0097 33.3089 66.3647 33.4562 66.6266 33.7181C66.8885 33.9799 67.0357 34.335 67.0358 34.7054V38.6028C67.0358 38.9733 66.8886 39.3282 66.6266 39.5901C66.3647 39.8521 66.0098 39.9993 65.6393 39.9993C65.2689 39.9993 64.913 39.8521 64.6511 39.5901C64.3894 39.3282 64.2429 38.9731 64.2429 38.6028V34.7054C64.243 34.3352 64.3894 33.9799 64.6511 33.7181C64.913 33.4561 65.2689 33.3089 65.6393 33.3089Z" fill="#212121" stroke="black" stroke-width="5"/>
<path d="M39.2739 29.9988C37.3208 29.9988 35.4476 30.7888 34.0665 32.195C32.6855 33.6012 31.9096 35.5084 31.9096 37.4971C31.9096 39.4857 32.6855 41.3929 34.0665 42.7991C35.4476 44.2053 37.3208 44.9953 39.2739 44.9953C41.2271 44.9953 43.1002 44.2053 44.4813 42.7991C45.8624 41.3929 46.6383 39.4857 46.6383 37.4971C46.6383 35.5084 45.8624 33.6012 44.4813 32.195C43.1002 30.7888 41.2271 29.9988 39.2739 29.9988ZM27 37.4971C27.0002 35.1244 27.6639 32.8008 28.9133 30.7979C30.1627 28.7951 31.9463 27.1958 34.0556 26.187C36.1648 25.1783 38.5125 24.8017 40.8242 25.1014C43.1358 25.4011 45.316 26.3646 47.1096 27.8793C48.9466 26.0348 51.4227 25.0005 54.0027 25C56.6907 25 59.1234 26.0997 60.8957 27.8793C63.2362 25.9051 66.2128 24.8852 69.2494 25.0172C72.2859 25.1491 75.1664 26.4235 77.3332 28.5936C79.4999 30.7636 80.7989 33.6751 80.9785 36.7642C81.1582 39.8534 80.2057 42.9005 78.3056 45.3158C76.4055 47.731 73.6929 49.3426 70.6928 49.8385C67.6928 50.3344 64.6188 49.6793 62.0658 48.0001C59.5129 46.3209 57.6626 43.737 56.8733 40.7486C56.0839 37.7602 56.4116 34.5799 57.7929 31.8234C57.3326 31.2532 56.754 30.7939 56.0987 30.4785C55.4433 30.163 54.7275 29.9992 54.0027 29.9988C52.4807 29.9988 51.1134 30.7062 50.2125 31.8234C51.054 33.5067 51.5098 35.3624 51.5456 37.2509C51.5814 39.1394 51.1963 41.0116 50.4193 42.7267C49.6423 44.4419 48.4935 45.9554 47.0593 47.1535C45.6251 48.3516 43.9429 49.2031 42.139 49.644C40.3351 50.0849 38.4566 50.1038 36.6445 49.6991C34.8325 49.2945 33.1341 48.4769 31.677 47.3078C30.2199 46.1387 29.0421 44.6485 28.232 42.9493C27.422 41.25 27.0007 39.3859 27 37.4971ZM68.7314 29.9988C67.7639 29.9975 66.8057 30.1906 65.9116 30.5669C65.0176 30.9433 64.2052 31.4955 63.5211 32.1921C62.837 32.8886 62.2946 33.7157 61.925 34.6261C61.5553 35.5364 61.3657 36.512 61.367 37.4971C61.367 38.9801 61.7989 40.4298 62.6082 41.6629C63.4174 42.896 64.5675 43.857 65.9132 44.4245C67.2588 44.9921 68.7396 45.1406 70.1681 44.8512C71.5967 44.5619 72.9089 43.8478 73.9388 42.7991C74.9687 41.7505 75.6701 40.4144 75.9543 38.9599C76.2384 37.5054 76.0926 35.9977 75.5352 34.6276C74.9778 33.2575 74.0339 32.0864 72.8228 31.2625C71.6118 30.4386 70.1879 29.9988 68.7314 29.9988Z" fill="black"/>
</svg>
