<svg width="147" height="147" viewBox="0 0 147 147" fill="none" xmlns="http://www.w3.org/2000/svg">
<g clip-path="url(#clip0_272_86)">
<g filter="url(#filter0_d_272_86)">
<path d="M79.3457 4.86943C78.1054 5.97193 68.4585 25.1164 68.4585 25.1164L61.2808 54.0685L89.2108 51.5075C89.2108 51.5075 112.444 8.30326 112.915 7.30412C113.753 5.48959 114.201 4.7431 110.997 4.7431C107.792 4.73162 80.5056 3.83584 79.3457 4.86943Z" fill="#176CC7"/>
<path d="M84.3628 5.91199C87.1069 5.8514 90.7057 5.8659 94.3853 5.91394C101.683 6.00922 109.401 6.23734 110.992 6.24304H110.997C111.287 6.24304 111.534 6.25136 111.742 6.26355C111.686 6.38451 111.627 6.51569 111.558 6.66492C111.559 6.66376 111.536 6.70741 111.474 6.82703C111.418 6.93401 111.342 7.08039 111.245 7.26453C111.05 7.63332 110.777 8.14708 110.437 8.78503C109.757 10.0606 108.812 11.8295 107.69 13.9247C105.446 18.1148 102.498 23.6084 99.5649 29.0712C96.6315 34.5339 93.7122 39.9652 91.5269 44.0311C90.4343 46.0637 89.5253 47.7551 88.8892 48.9384C88.6395 49.4027 88.4311 49.7891 88.271 50.0868L63.2437 52.3817L69.8735 25.6395C69.8832 25.6204 69.8944 25.5996 69.9058 25.577C69.9765 25.437 70.0807 25.2317 70.2134 24.9696C70.4791 24.445 70.8606 23.6936 71.3218 22.7889C72.2443 20.9793 73.4866 18.556 74.7671 16.0995C76.0487 13.6409 77.3644 11.1578 78.4341 9.22449C78.9698 8.2562 79.4365 7.43797 79.8032 6.83484C79.9785 6.54659 80.1229 6.32005 80.2358 6.15515C80.425 6.12417 80.6895 6.09124 81.0356 6.0614C81.851 5.99114 82.9872 5.94236 84.3628 5.91199Z" stroke="black" stroke-width="3"/>
</g>
<g filter="url(#filter1_d_272_86)">
<path d="M93.8046 49.7159C92.415 48.9694 51.4847 48.3263 50.52 49.7159C49.6472 50.9792 50.141 57.6057 50.4741 58.3981C51.0712 59.7762 64.2208 65.1164 64.2208 65.1164V68.4354C64.2208 68.4354 65.1166 68.8029 72.7882 68.8029C80.4598 68.8029 81.9872 68.4125 81.9872 68.4125L82.0446 65.2198C82.0446 65.2198 93.4601 59.3398 94.0573 58.5244C94.5855 57.8468 95.1942 50.4624 93.8046 49.7159ZM81.9297 60.2126C81.9297 60.2126 82.0905 58.6278 81.2981 58.2373C80.5057 57.8354 66.8048 57.9043 65.7253 57.9617C64.6458 58.0191 64.6458 59.9485 64.6458 59.9485L56.0669 55.4121L55.9176 53.8962L88.005 54.0685L88.0739 56.1127L81.9297 60.2126Z" fill="#FFD93D"/>
<path d="M54.4248 54.043L54.5742 55.5596L54.6533 56.3613L55.3662 56.7383L63.9443 61.2744L66.1455 62.4385V59.9551C66.1456 59.9508 66.1459 59.9399 66.1465 59.9248C66.1477 59.8943 66.1506 59.8456 66.1562 59.7852C66.1659 59.6807 66.1846 59.5625 66.21 59.4512C67.3552 59.4287 70.4712 59.4046 73.6084 59.4268C75.4331 59.4396 77.2378 59.4672 78.6299 59.5156C79.3282 59.5399 79.9064 59.5688 80.3252 59.6025C80.3611 59.6054 80.3953 59.6094 80.4277 59.6123C80.44 59.7252 80.444 59.839 80.4424 59.9326C80.4415 59.9832 80.44 60.023 80.4385 60.0469C80.4379 60.0552 80.4368 60.0616 80.4365 60.0654L80.4375 60.0645L80.1162 63.2256L82.7627 61.46L88.9062 57.3604L89.6016 56.8965L89.5732 56.0625L89.5039 54.0176L89.4551 52.5762L88.0127 52.5684L55.9258 52.3965L54.2617 52.3877L54.4248 54.043ZM65.7207 64.1064L64.7852 63.7266L64.7832 63.7256C64.7817 63.725 64.7793 63.7238 64.7764 63.7227C64.7703 63.7202 64.761 63.7168 64.749 63.7119C64.7247 63.702 64.6881 63.6874 64.6406 63.668C64.5454 63.629 64.4055 63.5708 64.2266 63.4971C63.8686 63.3495 63.3556 63.1375 62.7383 62.8779C61.5026 62.3584 59.8512 61.6525 58.1846 60.9053C56.5127 60.1557 54.8472 59.374 53.5732 58.7021C52.9329 58.3644 52.4223 58.071 52.0684 57.835C51.9717 57.7705 51.8957 57.7154 51.8369 57.6709C51.8331 57.6495 51.8285 57.6262 51.8242 57.6006C51.7873 57.3812 51.7477 57.0848 51.71 56.7275C51.6346 56.0147 51.5709 55.11 51.5439 54.1895C51.5169 53.2639 51.5276 52.356 51.5918 51.625C51.6169 51.3391 51.6487 51.0985 51.6846 50.9053C51.9486 50.8629 52.2997 50.8206 52.7402 50.7793C53.9072 50.6698 55.5535 50.5858 57.541 50.5244C61.508 50.4018 66.7365 50.3749 71.9912 50.415C77.244 50.4552 82.5072 50.5621 86.5381 50.7051C88.5552 50.7766 90.2527 50.8568 91.4824 50.9414C92.0991 50.9839 92.581 51.0246 92.9199 51.0654C92.9541 51.188 92.9909 51.3485 93.0234 51.5508C93.133 52.2316 93.1717 53.1446 93.1504 54.1133C93.1293 55.0721 93.0515 56.025 92.9502 56.7637C92.9002 57.1278 92.8468 57.4171 92.7988 57.6191C92.733 57.6649 92.6533 57.7233 92.5547 57.7871C92.2169 58.0055 91.7474 58.2871 91.1787 58.6152C90.0447 59.2695 88.5774 60.0727 87.1172 60.8564C85.6597 61.6388 84.2191 62.3966 83.1426 62.959C82.6047 63.24 82.1577 63.4721 81.8457 63.6338C81.6898 63.7146 81.5675 63.7783 81.4844 63.8213C81.4429 63.8427 81.411 63.8591 81.3896 63.8701C81.3791 63.8756 81.3706 63.8791 81.3652 63.8818C81.3626 63.8832 81.3607 63.8851 81.3594 63.8857H81.3584L81.3574 63.8867L80.5605 64.2969L80.5449 65.1924L80.5107 67.0811C80.4017 67.0902 80.2833 67.102 80.1553 67.1113C78.8623 67.2055 76.6011 67.3027 72.7881 67.3027C68.9711 67.3027 66.8724 67.2116 65.7441 67.124C65.7364 67.1234 65.7284 67.1217 65.7207 67.1211V64.1064Z" stroke="black" stroke-width="3"/>
</g>
<g filter="url(#filter2_d_272_86)">
<path d="M67.8036 59.535C66.7241 59.535 65.9087 60.7524 65.9087 62.6818C65.9087 64.4963 66.5288 65.9893 67.8955 65.9089C69.1932 65.84 69.8134 64.1977 69.7215 62.6588C69.6067 60.8557 69.1703 59.535 67.8036 59.535Z" fill="#FDFFFF"/>
<path d="M67.8521 61.0389C67.8639 61.054 67.8838 61.0796 67.9067 61.1229C68.0451 61.3842 68.1695 61.8974 68.2241 62.7538C68.2569 63.318 68.1512 63.8371 67.9878 64.1639C67.9094 64.3208 67.8408 64.3878 67.8149 64.4081C67.8137 64.409 67.813 64.4103 67.812 64.411H67.7935C67.776 64.3931 67.7433 64.3547 67.7026 64.2811C67.547 63.9993 67.4087 63.4562 67.4087 62.6815C67.4087 61.9073 67.5751 61.4185 67.7251 61.1766C67.7754 61.0957 67.8141 61.0558 67.8364 61.037C67.8425 61.0374 67.8476 61.0385 67.8521 61.0389Z" stroke="black" stroke-width="3"/>
</g>
<g filter="url(#filter3_d_272_86)">
<path d="M33.6606 105.76C33.6606 133.276 58.5932 144.726 75.1422 144.232C94.4245 143.658 115.165 129.027 113.454 102.774C111.846 78.1397 90.8414 66.3797 72.719 66.5176C51.6567 66.6669 33.6606 81.7229 33.6606 105.76Z" fill="#FF9A00"/>
<path d="M72.73 68.0173C90.0357 67.8857 109.788 78.9078 111.872 101.773L111.958 102.872C113.6 128.075 93.7483 142.178 75.0972 142.733C67.1434 142.97 57.1114 140.325 49.0972 134.301C41.1338 128.315 35.1606 119 35.1606 105.76C35.1607 82.987 51.876 68.6157 71.7798 68.0349L72.73 68.0173Z" stroke="black" stroke-width="3"/>
</g>
<path d="M74.097 139.294C73.8099 139.294 73.5113 139.294 73.2242 139.283C64.6109 138.995 55.8598 135.745 49.6353 129.716C42.9743 123.262 38.8629 115.096 38.84 105.714C38.7825 81.0683 59.9023 72.0071 73.4883 72.0071H73.6032C92.0126 72.0875 107.918 85.8457 108.332 105.243C108.516 113.879 104.978 123.021 98.0419 129.842C91.5762 136.193 82.0327 139.294 74.097 139.294Z" fill="#FFD93D"/>
<path d="M35.0269 5.27356C38.1644 5.23224 42.26 5.28429 46.436 5.33606H46.438C50.6037 5.38203 54.8078 5.42743 58.0493 5.49329C59.6711 5.52624 61.0407 5.56379 62.0396 5.60852C62.4793 5.62821 62.8358 5.64994 63.105 5.67102L63.1069 5.67297C63.3122 6.02377 63.5933 6.54964 63.9448 7.24231C64.6445 8.62112 65.5814 10.5784 66.6782 12.9308C68.87 17.6316 71.6755 23.8598 74.4438 30.0802C77.2113 36.2988 79.9391 42.5027 81.9751 47.1525C82.993 49.477 83.8378 51.413 84.4282 52.7677C84.4638 52.8494 84.498 52.9296 84.5317 53.007C84.0379 53.0472 83.4524 53.0917 82.7749 53.1339C80.2323 53.2925 76.3944 53.4413 71.2505 53.3956C66.098 53.3499 62.3767 53.1785 59.9517 53.0197C58.7391 52.9402 57.8503 52.8637 57.269 52.8077C57.2344 52.8044 57.2009 52.8002 57.1685 52.797C56.97 52.443 56.6975 51.9569 56.3608 51.3556C55.6061 50.0077 54.5285 48.0806 53.2378 45.7667C50.6562 41.1389 47.2221 34.9624 43.811 28.7657C40.3989 22.5673 37.0127 16.3554 34.5269 11.6544C33.2827 9.30161 32.2712 7.34009 31.5952 5.95227C31.4999 5.75664 31.4145 5.57323 31.3345 5.40442C32.2625 5.33499 33.5204 5.2934 35.0269 5.27356Z" fill="#2E9DF4" stroke="black" stroke-width="3"/>
<path d="M60.0519 77.3473C58.3752 75.9118 49.8423 80.2414 43.8475 90.1524C39.8279 96.8018 39.4834 105.312 42.0444 105.45C44.6054 105.587 44.571 97.1693 50.1409 89.8079C56.8707 80.9534 62.4751 79.426 60.0519 77.3473Z" fill="#FEFFFA"/>
<path d="M52.5 100.347C52.5 100.378 52.5029 100.41 52.5088 100.44L53.8281 107.336V107.337C54.1485 109.012 54.695 110.217 55.6289 111.172C56.717 112.285 58.2395 112.918 60.2109 113.159L68.2266 114.505L68.2812 123.003C68.283 123.278 68.5064 123.5 68.7812 123.5H71.5137C71.6468 123.5 71.7753 123.447 71.8691 123.353C71.9629 123.258 72.0145 123.13 72.0137 122.997L71.9424 111.816L71.9346 111.728C71.8966 111.525 71.7351 111.362 71.5254 111.327L60.7373 109.518L60.7129 109.514C59.4429 109.364 58.7563 109.061 58.3359 108.645C57.9123 108.225 57.6798 107.615 57.4961 106.654L56.2334 100.05V99.1016L63.4414 97.9248C63.5737 97.9032 63.6922 97.8292 63.7695 97.7197L69.4482 89.6787C69.526 89.569 69.6298 89.4779 69.752 89.4141C69.8744 89.3501 70.0116 89.3156 70.1514 89.3135L79.6641 89.1797C82.0937 89.1806 83.8187 89.4065 85.1143 89.916C86.3873 90.4168 87.2739 91.2022 88.0088 92.3926C88.8947 93.8274 89.5693 95.9169 90.0283 98.8584C90.4701 101.69 90.7053 105.277 90.7549 109.771H87.167C83.8468 109.771 81.9527 107.13 81.3027 104.498L79.0869 94.0889L79.0615 94.0059C78.9864 93.8195 78.8043 93.6924 78.5977 93.6924H75.8057C75.6549 93.6924 75.5119 93.7608 75.417 93.8779C75.3221 93.9952 75.285 94.1493 75.3164 94.2969L77.6611 105.31C77.6622 105.314 77.6629 105.319 77.6641 105.324L77.6689 105.344C78.2182 107.587 79.3088 109.537 80.8379 110.972C82.5359 112.581 84.8091 113.47 87.167 113.45L87.6816 113.451L89.6113 123.098C89.6581 123.331 89.8642 123.5 90.1025 123.5H92.8877C93.0374 123.5 93.1795 123.433 93.2744 123.317C93.3693 123.202 93.4072 123.049 93.3779 122.902L91.4883 113.451H94C94.2761 113.451 94.4999 113.227 94.5 112.951V111.611L94.4883 109.61C94.3746 99.8711 93.3971 94.0415 91.1973 90.4795C88.6234 86.3113 84.61 85.5 79.6504 85.5H79.623L70.0967 85.6338L69.8232 85.6465C69.1878 85.6932 68.5677 85.8689 68.0029 86.1641C67.4382 86.4593 66.9421 86.8662 66.5469 87.3594L66.3838 87.5762V87.5771L61.4854 94.5137L52.9189 95.9141C52.6774 95.9537 52.5001 96.1625 52.5 96.4072V100.347Z" fill="#FF9A00" stroke="#FF9A00" stroke-linejoin="round"/>
</g>
<defs>
<filter id="filter0_d_272_86" x="61.2808" y="4.37195" width="56.2437" height="53.6965" filterUnits="userSpaceOnUse" color-interpolation-filters="sRGB">
<feFlood flood-opacity="0" result="BackgroundImageFix"/>
<feColorMatrix in="SourceAlpha" type="matrix" values="0 0 0 0 0 0 0 0 0 0 0 0 0 0 0 0 0 0 127 0" result="hardAlpha"/>
<feOffset dx="4" dy="4"/>
<feComposite in2="hardAlpha" operator="out"/>
<feColorMatrix type="matrix" values="0 0 0 0 0 0 0 0 0 0 0 0 0 0 0 0 0 0 1 0"/>
<feBlend mode="normal" in2="BackgroundImageFix" result="effect1_dropShadow_272_86"/>
<feBlend mode="normal" in="SourceGraphic" in2="effect1_dropShadow_272_86" result="shape"/>
</filter>
<filter id="filter1_d_272_86" x="50.0303" y="48.8975" width="48.626" height="23.9055" filterUnits="userSpaceOnUse" color-interpolation-filters="sRGB">
<feFlood flood-opacity="0" result="BackgroundImageFix"/>
<feColorMatrix in="SourceAlpha" type="matrix" values="0 0 0 0 0 0 0 0 0 0 0 0 0 0 0 0 0 0 127 0" result="hardAlpha"/>
<feOffset dx="4" dy="4"/>
<feComposite in2="hardAlpha" operator="out"/>
<feColorMatrix type="matrix" values="0 0 0 0 0 0 0 0 0 0 0 0 0 0 0 0 0 0 1 0"/>
<feBlend mode="normal" in2="BackgroundImageFix" result="effect1_dropShadow_272_86"/>
<feBlend mode="normal" in="SourceGraphic" in2="effect1_dropShadow_272_86" result="shape"/>
</filter>
<filter id="filter2_d_272_86" x="65.9087" y="59.535" width="7.82178" height="10.377" filterUnits="userSpaceOnUse" color-interpolation-filters="sRGB">
<feFlood flood-opacity="0" result="BackgroundImageFix"/>
<feColorMatrix in="SourceAlpha" type="matrix" values="0 0 0 0 0 0 0 0 0 0 0 0 0 0 0 0 0 0 127 0" result="hardAlpha"/>
<feOffset dx="4" dy="4"/>
<feComposite in2="hardAlpha" operator="out"/>
<feColorMatrix type="matrix" values="0 0 0 0 0 0 0 0 0 0 0 0 0 0 0 0 0 0 1 0"/>
<feBlend mode="normal" in2="BackgroundImageFix" result="effect1_dropShadow_272_86"/>
<feBlend mode="normal" in="SourceGraphic" in2="effect1_dropShadow_272_86" result="shape"/>
</filter>
<filter id="filter3_d_272_86" x="33.6606" y="66.5164" width="83.8926" height="81.7312" filterUnits="userSpaceOnUse" color-interpolation-filters="sRGB">
<feFlood flood-opacity="0" result="BackgroundImageFix"/>
<feColorMatrix in="SourceAlpha" type="matrix" values="0 0 0 0 0 0 0 0 0 0 0 0 0 0 0 0 0 0 127 0" result="hardAlpha"/>
<feOffset dx="4" dy="4"/>
<feComposite in2="hardAlpha" operator="out"/>
<feColorMatrix type="matrix" values="0 0 0 0 0 0 0 0 0 0 0 0 0 0 0 0 0 0 1 0"/>
<feBlend mode="normal" in2="BackgroundImageFix" result="effect1_dropShadow_272_86"/>
<feBlend mode="normal" in="SourceGraphic" in2="effect1_dropShadow_272_86" result="shape"/>
</filter>
<clipPath id="clip0_272_86">
<rect width="147" height="147" fill="white"/>
</clipPath>
</defs>
</svg>
