<svg width="1384" height="688" viewBox="0 0 1384 688" fill="none" xmlns="http://www.w3.org/2000/svg">
<g filter="url(#filter0_d_297_18)">
<mask id="path-1-inside-1_297_18" fill="white">
<path d="M1050.32 41.2317C1059.47 43.0898 1068.28 43.898 1069.74 56.9879C1070.48 63.655 1079.48 64.337 1086.12 64.5169C1098.03 64.8418 1101.14 66.767 1100.43 77.3866C1099.86 85.9628 1102.63 88.5002 1110.65 89.2064C1121.21 90.1354 1131.1 93.1454 1142.21 88.8734C1152.21 85.031 1157.93 90.1032 1162.68 102.146C1163.68 104.697 1165.13 108.099 1168.11 106.259C1181.69 97.8765 1197.92 104.407 1212.47 97.0092C1222.14 92.0955 1235.92 94.3215 1245.62 103.644C1250.31 108.152 1255.88 110.319 1261.7 106.356C1267.87 102.154 1272.98 106.02 1276.16 109.288C1286.25 119.666 1297.64 116.581 1309.22 114.374C1310.77 114.078 1312.27 113.52 1313.79 113.085C1320.08 111.283 1314.19 125.716 1321.24 119.564C1324.97 116.304 1327.58 115.622 1331.81 115.11C1351.05 112.771 1365.24 123.686 1380 133.36L1372.94 149.941C1372.43 149.811 1371.92 149.692 1371.4 149.583C1367.22 148.711 1363.4 141.386 1362.13 143.389C1359.52 147.524 1354.27 151.06 1354.96 156.844C1355.83 164.266 1352.16 166.019 1345.59 166.333C1339.73 166.612 1333.75 167.649 1329.22 172.275C1325.53 176.048 1321.16 176.123 1315.92 175.922C1302.39 175.401 1295.11 181.823 1293.42 195.536C1291.68 209.601 1278.55 214.649 1271.6 224.554C1269.36 227.755 1267.34 223.606 1266.14 221.472C1260.63 211.703 1264.04 202.622 1268.96 194.051C1271.34 189.906 1275.16 186.608 1278.18 182.803C1280.01 180.497 1284.77 179.015 1282.6 175.427C1280.68 172.254 1276.27 171.392 1272.45 171.491C1267.67 171.617 1264.44 174.893 1262.24 178.612C1258.4 185.094 1253.88 184.141 1247.23 182.948C1229.9 179.842 1211.95 178.024 1199.88 195.418C1196.69 200.023 1186.8 200.694 1189.81 208.172C1192.65 215.21 1201.39 210.554 1207.31 212.377C1211.68 213.722 1217.58 212.213 1217.78 218.102C1217.99 224.449 1224.45 231.554 1217.24 237.209C1215 238.965 1212.98 240.034 1212.68 243.022C1212.53 244.528 1212.58 246.808 1210.74 246.803C1208.99 246.797 1209.18 244.547 1209 243.1C1208.87 242.031 1208.96 240.939 1208.84 239.867C1208.5 236.863 1209.82 233.603 1207.49 230.899C1206.67 233.941 1206.4 237.271 1204.95 239.98C1198.09 252.914 1190.77 265.131 1174.72 269.025C1160.02 272.59 1158.55 275.6 1162.09 290.449C1163.38 295.862 1163.41 300.472 1157.6 302.387C1151.99 304.237 1150.24 299.025 1148.31 295.416C1146.82 292.635 1145.98 289.364 1145.49 286.215C1144.78 281.602 1142.22 281.185 1138.62 282.506C1135.83 283.535 1132.86 287.02 1130.3 282.89C1128.54 280.042 1127.42 278.157 1124.88 281.731C1123.35 283.871 1120.96 286.507 1121.25 288.591C1121.9 293.123 1125.26 289.456 1127.45 289.668C1133.7 290.28 1139.58 291.024 1131.37 298.389C1127.65 301.729 1128.76 306.1 1129.62 310.461C1133.98 332.731 1124.43 349.183 1103.3 356.733C1098.01 358.621 1091.42 358.299 1089.14 365.744C1087.68 370.489 1085.51 370.086 1083.4 365.336C1080.85 359.593 1077.04 363.269 1074.17 365.272C1070.29 367.995 1070.22 371.405 1073.83 374.672C1075.43 376.122 1077.14 377.46 1078.64 379.009C1088.84 389.575 1085.25 404.367 1071.36 409.885C1067.54 411.407 1066.95 408.792 1065.41 406.617C1061.24 400.702 1054.05 393.72 1048.69 398.564C1041.79 404.815 1049.09 412.24 1054.59 417.5C1058.63 421.369 1063.39 426.028 1062.37 431.054C1060.02 442.552 1070.2 449.544 1070.85 459.728C1071.14 464.32 1075.56 465.007 1079.24 466.027C1090.04 469.021 1100.09 475.208 1112.03 473.347C1114.08 473.028 1117.09 473.852 1117.24 476.059C1117.46 479.19 1114.21 478.288 1112.31 478.459C1098.7 479.681 1084.76 477.388 1072.52 473.476C1063.08 470.461 1055.1 459.605 1048.97 450.545C1043.87 442.999 1038.29 435.797 1032.25 428.987C1030.48 426.997 1027.18 425.74 1029.31 422.73C1031.72 419.336 1035.24 420.671 1037.73 422.87C1041.36 426.062 1044.52 429.779 1047.92 433.229C1049.05 434.373 1050.66 435.624 1052.03 434.472C1053.63 433.124 1051.92 431.658 1051.08 430.488C1042.22 418.093 1038.9 404.343 1040.12 389.191C1040.57 383.541 1039.65 377.887 1031.26 379.696C1024.05 381.254 1024.24 374.372 1021.74 370.827C1011.22 355.952 1007.32 355.571 993.816 367.629C990.715 370.398 987.315 372.833 983.924 375.239C972.26 383.517 969.186 395.78 975.179 409.393C976.406 412.183 979.413 415.271 976.092 418.096C973.031 420.7 970.45 417.406 967.534 416.41C954.077 411.81 949.007 400.597 947.157 388.533C944.399 370.562 930.872 360.173 921.203 347.008C918.722 343.627 915.016 342.913 911.128 342.846C906.271 342.76 901.373 342.33 896.564 342.8C893.571 343.093 890.722 342.658 887.913 342.043C883.123 340.996 880.282 347.15 884.189 350.112C886.052 351.524 888.074 352.81 889.798 354.341C892.902 357.096 889.707 358.766 888.804 361.102C883.101 375.883 868.878 379.688 856.659 385.303C849.017 388.812 841.78 394.118 832.842 394.644C831.182 394.741 829.531 395.614 829.531 397.509C829.531 400.068 831.556 401.303 833.709 401.497C839.184 401.991 844.006 399.005 849.242 398.17C856.535 397.01 860.053 401.956 856.801 408.585C850.386 421.67 842.137 433.739 830.323 442.938C812.231 457.027 810.507 462.781 817.292 483.883C822.609 500.421 821.986 502.915 807.564 513.854C802.062 518.03 797.347 521.856 800.084 529.758C801.166 532.884 801.431 537.156 798.843 538.941C788.497 546.086 785.111 557.971 778.616 567.637C768.174 583.176 752.171 582.429 736.774 583.6C731.949 583.968 728.311 579.183 727.822 575.443C726.061 561.982 719.386 549.73 714.759 537.859C707.641 519.592 702.3 503.844 709.432 484.584C711.478 479.056 708.782 469.924 705.144 464.553C699.049 455.556 696.152 446.491 696.433 435.906C696.522 432.534 694.688 428.334 691.289 428.828C682.02 430.176 674.502 421.637 666.736 423.385C658.023 425.348 648.483 423.632 640.476 428.613C635.098 431.959 630.34 430.614 625.442 427.394C613.144 419.312 606.177 406.091 595.447 396.5C594.322 395.493 593.643 393.516 593.911 392.032C597.6 371.603 590.544 348.111 609.82 332.084C619.191 324.292 622.891 312.351 631.908 304.366C635.694 301.012 635.868 296.472 630.114 294.227C626.277 292.729 622.277 290.573 623.525 286.429C625.606 279.526 621.6 272.249 625.099 265.931C628.24 260.263 634.341 261.292 639.684 261.576C655.609 262.425 657.065 261.203 654.235 244.963C653.037 238.084 654.675 234.876 660.553 230.622C667.37 225.687 673.884 219.949 680.814 215.054C691.963 207.176 693.222 204.115 685.261 192.15C682.769 188.407 681.153 184.745 680.17 180.529C677.436 168.785 679.278 163.731 690.365 158.522C698.101 154.889 703.901 150.134 707.303 142.189C713.213 128.385 724.597 120.56 738.074 115.373C743.605 113.243 749.384 111.759 754.952 109.715C764.874 106.074 773.348 104.391 782.343 113.909C788.264 120.174 799.56 119.21 807.398 124.29C810.061 126.019 814.202 126.317 815.869 128.589C822.394 137.468 827.176 142.065 830.882 126.704C831.733 123.178 837.369 122.002 840.408 125.622C845.027 131.123 849.186 129.835 854.427 126.808C863.218 121.734 873.416 124.306 882.884 122.461C892.932 120.504 886.34 116.173 885.045 112.438L885.225 112.215C893.13 113.834 900.997 115.679 908.953 116.978C913.164 117.666 916.131 117.768 917.438 111.176C920.276 96.8669 926.702 94.1684 942.412 95.6479C948.035 96.1769 953.47 95.2076 959.165 97.7235C962.454 99.1761 968.353 98.5371 969.266 92.6943C970.539 84.545 974.703 85.5949 980.842 87.3939C986.518 89.056 994.264 91.8995 994.184 80.4422C994.162 77.4403 997.873 76.8925 1000.48 76.3233C1011.93 73.8261 1022.61 68.5687 1034.96 69.1192C1046.3 69.624 1049.35 62.0976 1043.26 51.2901C1046.6 48.6426 1048.52 44.9828 1050.32 41.2317ZM687.036 264.382C675.084 266.493 666.975 273.702 662.107 284.091C659.728 289.168 657.655 293.722 652.395 296.222C650.642 297.054 647.087 296.576 647.516 298.864C647.852 300.647 651.439 300.274 653.362 299.602C662.996 296.243 672.584 293.099 682.911 292.202C688.553 291.711 693.617 292.522 698.533 294.772C703.366 296.985 702.746 301.555 703.012 305.894C703.221 309.266 705.861 312.077 709.236 312.252C720.052 312.808 730.357 321.977 741.814 313.987C743.581 312.754 747.423 313.009 749.577 314.064C761.493 319.915 774.239 315.855 786.486 317.539C792.485 318.363 794.617 312.491 795.766 308.136C797.17 302.809 792.847 302.701 788.699 302.414C785.106 302.164 781.379 299.157 778.114 299.715C766.869 301.638 761.918 296.968 761.206 286.174C761.064 283.994 759.74 281.916 757.031 282.289C755.208 282.541 755.366 284.542 754.676 285.868C750.694 293.532 740.386 294.847 735.456 288.328C733.96 286.352 733.829 281.108 731.657 282.198C720.462 287.815 715.511 277.421 708.052 273.812C703.154 271.441 700.109 270.571 699.618 277.681C699.358 281.465 697.242 286.241 692.975 284.985C686.845 283.18 692.285 278.93 692.548 275.721C692.954 270.912 696.434 264.511 687.036 264.382ZM729.75 205.476C737.212 205.866 736.594 205.474 739.626 200.697C746.744 189.476 743.922 178.384 740.206 167.208C739.161 164.064 739.578 158.256 733.815 160.31C729.428 161.876 726.681 166.983 729.525 170.847C739.135 183.918 726.49 190.228 721.319 198.133C718.086 203.076 711.588 208.089 706.1 198.753C705.297 197.386 703.447 196.28 702.147 197.569C701.216 198.492 700.845 200.595 701.106 202.01C702.819 211.284 710.125 209.308 716.37 209.324C721.187 209.338 724.24 203.13 729.75 205.476ZM818.533 270.727C816.256 261.853 803.668 262.621 801.807 252.439C801.383 250.116 798.209 256.005 795.951 257.712C792.375 260.416 788.763 261.224 786.548 256.778C784.736 253.14 782.786 250.954 779.634 254.275C776.03 258.072 771.764 261.992 772.457 268.122C772.897 272.018 775.894 274.242 779.185 273.525C789.518 271.275 799.087 272.719 808.842 276.559C812.929 278.165 817.405 276.237 818.533 270.727ZM808.348 354.961C804.968 355.691 804.836 358.148 804.659 360.836C804.138 368.671 809.771 373.228 813.914 378.563C815.794 380.982 817.725 385.308 820.831 383.984C825.315 382.073 822.491 377.669 821.642 374.345C820.034 368.029 815.378 363.411 812.116 358.019C811.369 356.779 809.753 356.065 808.348 354.961ZM0 216.448C13.5033 208.167 27.1759 200.249 42.2903 195.147C44.2182 194.497 46.8979 193.302 46.6885 190.972C46.4468 188.273 43.1898 189.446 41.4821 188.442C34.525 184.35 27.3128 180.615 20.7182 175.999C12.5716 170.296 12.9502 165.576 21.3385 160.466C23.1482 159.363 25.2775 158.791 27.2484 157.942C29.5065 156.967 34.1034 157.639 33.2012 154.307C32.4091 151.38 28.4808 154.145 25.9541 154.003C23.8302 153.885 21.5479 154.006 19.6334 153.257C15.9414 151.812 12.6844 149.06 13.3449 144.86C14.1854 139.514 18.9326 139.101 23.3818 139.05C25.3634 139.026 28.2043 141.348 29.085 138.867C29.9039 136.563 26.51 136.196 24.7996 135.087C12.0212 126.79 12.0695 124.76 24.9419 117.287C28.1989 115.397 31.2492 113.074 34.6673 111.563C44.3846 107.266 53.5167 104.664 64.9847 108.697C77.414 113.069 91.3926 112.814 104.504 115.518C120.77 118.871 136.215 118.949 152.803 114.734C168.737 110.684 185.817 113.697 201.798 119.317C203.718 119.991 206.181 121.688 207.673 119.459C209.024 117.443 207.375 115.255 205.568 114.038C202.87 112.226 200.402 110.703 199.717 106.944C198.941 102.686 196.423 101.735 193.139 105.266C189.246 109.452 184.56 109.377 179.781 107.296C174.888 105.167 171.148 102.041 174.534 96.1393C176.43 92.8339 178.505 89.8159 178.277 85.7372C177.955 80.0153 182.957 78.756 185.809 80.5872C194.984 86.4729 206.487 83.2105 215.807 90.412C223.47 96.3353 234.052 98.0726 244.161 91.9103C249.996 88.3552 256.153 87.5685 254.877 98.0591C254.383 102.132 255.75 106.579 258.768 108.177C267.054 112.561 274.006 115.942 262.21 124.521C259.737 126.32 261.577 129.708 264.654 130.581C268.322 131.62 273.582 132.342 274.003 127.665C274.497 122.185 276.398 119.21 280.676 116.049C287.654 110.894 286.481 107.747 277.518 107.653C270.236 107.575 267.742 100.03 262.261 97.0254C268.644 95.8762 271.152 88.2209 278.034 87.7484C281.779 87.4906 285.49 86.6797 289.209 86.0675C294.515 85.1948 298.148 82.5527 298.929 76.8549C299.327 73.9657 299.117 71.3021 295.704 70.6228C290.836 69.6562 286.556 66.7616 282.163 73.81C275.961 83.7583 263.671 75.4318 255.081 79.9884L252.856 74.0946C254.201 72.6662 254.351 71.2404 252.85 69.8146C253.954 64.0846 249.795 58.9185 252.574 52.493C257.235 41.7151 258.406 40.6142 267.803 46.5697C270.607 48.3473 274.194 50.3503 273.098 53.8007C271.63 58.4137 267.723 54.5042 264.93 54.6921C261.464 54.9257 258.126 55.2372 258.089 59.5871C258.051 63.8671 261.212 64.627 264.788 64.6055C268.555 64.584 272.333 64.9546 276.087 64.7532C283.012 64.3826 287.058 62.0332 281.492 54.8613C279.07 51.7385 275.961 48.2909 279.954 45.1386C284.11 41.8547 286.994 46.6261 289.008 49.1662C291.019 51.7036 298.073 51.7009 293.897 58.6741C292.633 60.7873 299.327 62.2292 302.745 63.0723C304.38 63.4751 305.988 62.4762 306.396 60.653C307.223 56.9503 305.459 54.4827 302.296 52.8045C301.795 52.5507 301.315 52.2581 300.86 51.9292C280.883 37.2471 281.122 32.6421 302.573 20.0168C306.284 17.8273 310.305 16.2123 314.5 15.2266C336.459 9.99064 358.962 8.47895 381.249 5.87172C390.563 4.78157 400.431 7.97145 409.985 9.59593C413.615 10.2135 419.96 11.7118 420.048 13.1268C420.309 17.2404 414.595 17.09 412.041 19.7161C410.592 21.209 407.888 22.2723 409.33 24.7802C410.976 27.6398 414.619 27.7767 416.193 25.6662C425.566 13.108 438.64 16.2845 451.499 15.4843C461.963 14.8345 472.531 13.4571 483.285 9.75703C495.126 5.68106 509.25 4.49962 522.555 3.43364C525.221 3.22152 528.65 4.73591 530.513 3.5491C546.608 -6.68649 560.065 8.54607 575.091 7.8211C576.882 7.73517 578.262 9.24954 577.688 11.0459C577.258 12.3884 575.867 14.3163 574.774 14.4049C567.267 15.0198 559.722 15.1809 552.193 15.5864C550.641 15.6696 549.11 16.1798 547.569 16.4939C548.482 19.128 550.823 18.2285 552.523 18.2258C568.604 18.1883 584.656 20.4598 600.788 18.5266C604.705 18.0567 610.384 17.4982 611.155 23.392C611.762 28.0291 606.832 28.9071 603.626 30.6659C592.101 36.992 579.251 42.5555 588.079 59.8207C589.183 61.9768 586.318 63.9691 586.366 65.6446C586.801 80.5335 573.786 92.1707 576.565 107.693C577.347 112.059 574.605 116.613 570.167 117.983C560.471 120.974 552.929 129.52 541.855 128.83C540.808 128.766 539.511 128.838 538.7 129.394C522.847 140.237 501.737 145.381 496.429 167.745C494.412 176.238 489.439 177.299 481.854 175.129C469.838 171.693 463.896 162.55 457.86 152.679C451.606 142.452 448.894 133.194 458.472 123.589C459.968 122.091 459.863 120.211 457.771 118.254C452.995 113.786 444.553 99.1466 443.285 94.2785C439.4 79.344 424.53 67.151 409.797 71.0873C393.517 75.4372 387.658 64.6001 379.482 56.0239C376.158 52.5387 379.071 50.1006 382.076 48.5997C386.375 46.4489 391.439 46.4623 395.603 43.4899C398.979 41.0814 399.207 39.0246 397.486 35.4803C395.67 31.7399 393.447 33.0556 390.988 34.0411C376.357 39.8999 363.371 47.0772 358.568 64.098C356.959 69.8039 352.454 74.4598 350.977 80.9954C349.707 86.6179 342.006 85.3372 336.813 86.1803C334.92 86.4891 331.642 84.6981 331.475 87.3187C331.352 89.2628 335.285 88.3337 336.972 89.303C348.641 95.9997 363.114 91.9237 374.762 100.358C384.036 107.073 394.964 110.593 399.478 123.218C401.68 129.381 410.216 131.609 416.644 134.311C419.648 135.573 424.006 136.547 420.725 140.433C418.155 143.475 416.936 150.77 410.063 147.145C407.748 145.924 406.024 143.601 403.981 141.84C402.794 140.817 401.186 139.45 399.867 140.604C398.412 141.877 399.83 143.461 400.842 144.613C402.265 146.235 404.005 147.607 405.267 149.334C407.571 152.486 413.607 155.434 408.884 159.776C405.321 163.055 400.834 168.331 394.8 165.501C382.914 159.929 372.264 150.956 357.703 153.544C356.323 153.788 354.967 151.96 354.943 150.201C354.913 148.233 356.315 147.427 358.068 147.288C360.751 147.073 363.589 147.465 366.097 146.718C372.981 144.667 377.21 136.158 374.759 130.025C371.91 122.902 354.65 114.618 346.479 115.555C340.688 116.221 344.468 118.501 344.076 120.963C342.973 127.901 348.501 138.897 333.733 139.49C328.489 139.702 332.641 144.023 334.754 145.98C338.593 149.538 347.575 150.099 346.522 155.281C345.521 160.222 336.765 153.039 332.326 158.071C330.479 160.165 327.034 160.383 324.827 158.581C316.165 151.514 310.934 158.85 305.403 163.232C288.949 176.271 289.628 183.477 308.73 192.682C313.05 194.763 317.032 197.894 321.656 199.019C333.701 201.954 343.964 206.443 346.99 220.223C347.524 222.65 350.521 227.048 354.143 223.649C356.135 221.778 356.149 218.658 354.61 216.399C349.892 209.472 350.784 204.875 358.877 201.333C362.488 199.754 361.39 195.595 359.878 192.709C357.19 187.58 358.221 182.17 357.974 176.845C357.346 163.192 365.015 158.195 377.31 164.682C381.985 167.149 387.363 170.044 389.981 174.257C394.374 181.327 397.827 184.992 406.328 179.721C411.854 176.295 415.785 181.555 417.57 185.835C421.477 195.198 428.622 201.229 435.893 207.692C441.43 212.613 450.191 217.033 444.977 227.567C443.291 230.969 447.098 231.721 449.184 233.128C452.809 235.574 456.201 238.283 457.006 242.95C457.377 245.095 455.988 248.878 455.725 248.674C449.791 244.08 442.705 248.454 436.868 246.113C432.932 244.534 432.711 240.361 434.185 236.291C436.449 230.037 433.171 230.198 428.509 231.353C425.411 232.121 421.995 232.612 418.883 232.142C407.665 230.453 408.296 234.266 411.706 243.213C414.732 251.153 417.831 250.532 423.475 247.345C426.114 245.855 428.893 246.191 430.128 249.286C431.302 252.227 429.47 255.666 427.228 256.029C418.816 257.393 411.947 267.529 401.954 260.403C398.946 258.26 393.893 259.887 393.377 262.28C391.337 271.774 383.335 274.274 376.735 278.632C375.489 279.454 374.579 281.137 374.034 282.614C369.177 295.712 362.236 306.922 350.727 315.727C344.879 320.2 344.501 327.979 350.502 334.409C353.447 337.564 354.28 341.92 350.311 344.191C346.38 346.439 345.827 340.797 343.467 339.052C340.951 337.191 338.824 334.49 337.229 331.748C332.528 323.672 325.308 322.802 317.617 325.267C312.91 326.776 308.365 327.917 303.459 327.92C293.803 327.925 285.184 327.447 287.423 342.559C288.259 348.195 280.198 354.526 287.571 361.722C292.941 366.961 297.793 369.447 304.568 365.218C306.853 363.792 308.99 362.12 311.302 360.737C314.669 358.72 318.858 357.174 322.069 359.163C326.996 362.219 322.171 366.061 320.869 368.712C316.68 377.253 317.505 381.678 328.226 381.589C333.945 381.544 337.138 385.367 337.27 390.99C337.393 396.258 335.159 402.882 341.896 404.917C348.923 407.039 357.843 407.758 363.326 403.376C375.129 393.943 386.759 395.941 399.448 399.918C402.861 400.986 406.405 401.491 409.974 401.725C430.558 403.083 441.886 422.524 460.784 427.115C467.228 449.417 490.258 445.97 505.085 455.231C508.928 457.631 513.863 458.864 518.02 461.428C526.035 466.379 528.244 472.735 522.163 480.197C516.081 487.659 514.507 496.399 511.919 505.235C507.663 519.759 505.042 536.535 484.163 537.856C478.535 538.214 475.611 543.509 473.946 549.161C467.266 571.844 464.852 574.237 440.345 583.705C438.444 584.44 437.894 585.192 438.517 586.937C442.367 597.715 434.986 600.65 427.175 601.381C419.874 602.065 419.501 608.136 416.603 612.089C411.394 619.196 410.181 628.876 402.415 634.52C401.932 634.872 402.474 637.995 403.401 638.706C408.422 642.559 406.196 645.043 403.003 649.054C392.413 662.372 392.604 663.103 402.115 676.958C403.634 679.17 406.572 680.819 401.801 682.425C388.901 686.764 376.792 680.765 371.905 667.923C368.092 657.907 367.866 646.963 370.53 637.6C376.091 618.047 375.28 597.729 380.006 577.902C383.622 562.723 386.541 545.837 386.783 529.312C386.936 518.972 382.812 511.011 374.622 506.17C365.557 500.81 360.477 493.281 357.061 483.899C356.154 481.408 354.524 479.184 353.377 476.768C350.351 470.391 338.328 468.283 345.228 456.992C348.961 450.886 347.32 442.001 354.196 436.953C358.624 433.704 358.85 428.979 359.105 423.955C359.379 418.587 358.084 416.375 352.18 415.8C341.501 414.764 330.307 413.612 327.676 399.66C327.104 396.628 323.474 396.296 321.07 395.81C308.665 393.288 298.881 385.053 284.542 384.529C272.441 384.089 256.131 377.948 249.991 361.83C247.279 354.711 244.244 349.537 233.023 351.809C223.846 353.667 217.89 342.124 214.776 333.76C209.918 320.723 202.993 310.713 191.778 301.737C179.654 292.036 176.325 276.097 176.631 260.607C176.84 250.022 177.643 240.004 166.258 234.245C163.834 233.017 162.84 231.044 162.505 227.876C161.17 215.309 160.139 214.606 146.794 213.545C142.501 213.204 142.67 209.558 141.091 206.9C131.384 190.569 119.057 178.478 98.4598 176.252C90.9952 175.444 86.4118 179.294 80.4535 180.446C74.1301 181.668 66.6038 178.719 70.7603 190.472C71.9874 193.947 66.5447 199.207 62.0929 197.768C53.9543 195.133 50.0771 199.494 45.9044 204.666C44.9109 205.898 43.6436 207.796 42.4433 207.842C27.6968 208.403 15.5064 218.182 0.945154 219.248L0 216.448ZM306.555 95.8976C303.91 96.3434 301.268 96.8642 299.434 99.0633C297.342 101.571 298.129 104.203 299.877 106.302C305.537 113.098 309.745 121.519 319.757 123.543C321.701 123.935 319.253 129.851 323.444 128.817C325.49 128.315 327.598 125.281 328.339 122.963C329.295 119.975 326.575 117.891 324.04 117.266C315.354 115.123 312.287 108.971 311.356 100.927C311.036 98.1799 310.198 95.6238 306.555 95.8976Z"/>
</mask>
<path d="M1050.32 41.2317C1059.47 43.0898 1068.28 43.898 1069.74 56.9879C1070.48 63.655 1079.48 64.337 1086.12 64.5169C1098.03 64.8418 1101.14 66.767 1100.43 77.3866C1099.86 85.9628 1102.63 88.5002 1110.65 89.2064C1121.21 90.1354 1131.1 93.1454 1142.21 88.8734C1152.21 85.031 1157.93 90.1032 1162.68 102.146C1163.68 104.697 1165.13 108.099 1168.11 106.259C1181.69 97.8765 1197.92 104.407 1212.47 97.0092C1222.14 92.0955 1235.92 94.3215 1245.62 103.644C1250.31 108.152 1255.88 110.319 1261.7 106.356C1267.87 102.154 1272.98 106.02 1276.16 109.288C1286.25 119.666 1297.64 116.581 1309.22 114.374C1310.77 114.078 1312.27 113.52 1313.79 113.085C1320.08 111.283 1314.19 125.716 1321.24 119.564C1324.97 116.304 1327.58 115.622 1331.81 115.11C1351.05 112.771 1365.24 123.686 1380 133.36L1372.94 149.941C1372.43 149.811 1371.92 149.692 1371.4 149.583C1367.22 148.711 1363.4 141.386 1362.13 143.389C1359.52 147.524 1354.27 151.06 1354.96 156.844C1355.83 164.266 1352.16 166.019 1345.59 166.333C1339.73 166.612 1333.75 167.649 1329.22 172.275C1325.53 176.048 1321.16 176.123 1315.92 175.922C1302.39 175.401 1295.11 181.823 1293.42 195.536C1291.68 209.601 1278.55 214.649 1271.6 224.554C1269.36 227.755 1267.34 223.606 1266.14 221.472C1260.63 211.703 1264.04 202.622 1268.96 194.051C1271.34 189.906 1275.16 186.608 1278.18 182.803C1280.01 180.497 1284.77 179.015 1282.6 175.427C1280.68 172.254 1276.27 171.392 1272.45 171.491C1267.67 171.617 1264.44 174.893 1262.24 178.612C1258.4 185.094 1253.88 184.141 1247.23 182.948C1229.9 179.842 1211.95 178.024 1199.88 195.418C1196.69 200.023 1186.8 200.694 1189.81 208.172C1192.65 215.21 1201.39 210.554 1207.31 212.377C1211.68 213.722 1217.58 212.213 1217.78 218.102C1217.99 224.449 1224.45 231.554 1217.24 237.209C1215 238.965 1212.98 240.034 1212.68 243.022C1212.53 244.528 1212.58 246.808 1210.74 246.803C1208.99 246.797 1209.18 244.547 1209 243.1C1208.87 242.031 1208.96 240.939 1208.84 239.867C1208.5 236.863 1209.82 233.603 1207.49 230.899C1206.67 233.941 1206.4 237.271 1204.95 239.98C1198.09 252.914 1190.77 265.131 1174.72 269.025C1160.02 272.59 1158.55 275.6 1162.09 290.449C1163.38 295.862 1163.41 300.472 1157.6 302.387C1151.99 304.237 1150.24 299.025 1148.31 295.416C1146.82 292.635 1145.98 289.364 1145.49 286.215C1144.78 281.602 1142.22 281.185 1138.62 282.506C1135.83 283.535 1132.86 287.02 1130.3 282.89C1128.54 280.042 1127.42 278.157 1124.88 281.731C1123.35 283.871 1120.96 286.507 1121.25 288.591C1121.9 293.123 1125.26 289.456 1127.45 289.668C1133.7 290.28 1139.58 291.024 1131.37 298.389C1127.65 301.729 1128.76 306.1 1129.62 310.461C1133.98 332.731 1124.43 349.183 1103.3 356.733C1098.01 358.621 1091.42 358.299 1089.14 365.744C1087.68 370.489 1085.51 370.086 1083.4 365.336C1080.85 359.593 1077.04 363.269 1074.17 365.272C1070.29 367.995 1070.22 371.405 1073.83 374.672C1075.43 376.122 1077.14 377.46 1078.64 379.009C1088.84 389.575 1085.25 404.367 1071.36 409.885C1067.54 411.407 1066.95 408.792 1065.41 406.617C1061.24 400.702 1054.05 393.72 1048.69 398.564C1041.79 404.815 1049.09 412.24 1054.59 417.5C1058.63 421.369 1063.39 426.028 1062.37 431.054C1060.02 442.552 1070.2 449.544 1070.85 459.728C1071.14 464.32 1075.56 465.007 1079.24 466.027C1090.04 469.021 1100.09 475.208 1112.03 473.347C1114.08 473.028 1117.09 473.852 1117.24 476.059C1117.46 479.19 1114.21 478.288 1112.31 478.459C1098.7 479.681 1084.76 477.388 1072.52 473.476C1063.08 470.461 1055.1 459.605 1048.97 450.545C1043.87 442.999 1038.29 435.797 1032.25 428.987C1030.48 426.997 1027.18 425.74 1029.31 422.73C1031.72 419.336 1035.24 420.671 1037.73 422.87C1041.36 426.062 1044.52 429.779 1047.92 433.229C1049.05 434.373 1050.66 435.624 1052.03 434.472C1053.63 433.124 1051.92 431.658 1051.08 430.488C1042.22 418.093 1038.9 404.343 1040.12 389.191C1040.57 383.541 1039.65 377.887 1031.26 379.696C1024.05 381.254 1024.24 374.372 1021.74 370.827C1011.22 355.952 1007.32 355.571 993.816 367.629C990.715 370.398 987.315 372.833 983.924 375.239C972.26 383.517 969.186 395.78 975.179 409.393C976.406 412.183 979.413 415.271 976.092 418.096C973.031 420.7 970.45 417.406 967.534 416.41C954.077 411.81 949.007 400.597 947.157 388.533C944.399 370.562 930.872 360.173 921.203 347.008C918.722 343.627 915.016 342.913 911.128 342.846C906.271 342.76 901.373 342.33 896.564 342.8C893.571 343.093 890.722 342.658 887.913 342.043C883.123 340.996 880.282 347.15 884.189 350.112C886.052 351.524 888.074 352.81 889.798 354.341C892.902 357.096 889.707 358.766 888.804 361.102C883.101 375.883 868.878 379.688 856.659 385.303C849.017 388.812 841.78 394.118 832.842 394.644C831.182 394.741 829.531 395.614 829.531 397.509C829.531 400.068 831.556 401.303 833.709 401.497C839.184 401.991 844.006 399.005 849.242 398.17C856.535 397.01 860.053 401.956 856.801 408.585C850.386 421.67 842.137 433.739 830.323 442.938C812.231 457.027 810.507 462.781 817.292 483.883C822.609 500.421 821.986 502.915 807.564 513.854C802.062 518.03 797.347 521.856 800.084 529.758C801.166 532.884 801.431 537.156 798.843 538.941C788.497 546.086 785.111 557.971 778.616 567.637C768.174 583.176 752.171 582.429 736.774 583.6C731.949 583.968 728.311 579.183 727.822 575.443C726.061 561.982 719.386 549.73 714.759 537.859C707.641 519.592 702.3 503.844 709.432 484.584C711.478 479.056 708.782 469.924 705.144 464.553C699.049 455.556 696.152 446.491 696.433 435.906C696.522 432.534 694.688 428.334 691.289 428.828C682.02 430.176 674.502 421.637 666.736 423.385C658.023 425.348 648.483 423.632 640.476 428.613C635.098 431.959 630.34 430.614 625.442 427.394C613.144 419.312 606.177 406.091 595.447 396.5C594.322 395.493 593.643 393.516 593.911 392.032C597.6 371.603 590.544 348.111 609.82 332.084C619.191 324.292 622.891 312.351 631.908 304.366C635.694 301.012 635.868 296.472 630.114 294.227C626.277 292.729 622.277 290.573 623.525 286.429C625.606 279.526 621.6 272.249 625.099 265.931C628.24 260.263 634.341 261.292 639.684 261.576C655.609 262.425 657.065 261.203 654.235 244.963C653.037 238.084 654.675 234.876 660.553 230.622C667.37 225.687 673.884 219.949 680.814 215.054C691.963 207.176 693.222 204.115 685.261 192.15C682.769 188.407 681.153 184.745 680.17 180.529C677.436 168.785 679.278 163.731 690.365 158.522C698.101 154.889 703.901 150.134 707.303 142.189C713.213 128.385 724.597 120.56 738.074 115.373C743.605 113.243 749.384 111.759 754.952 109.715C764.874 106.074 773.348 104.391 782.343 113.909C788.264 120.174 799.56 119.21 807.398 124.29C810.061 126.019 814.202 126.317 815.869 128.589C822.394 137.468 827.176 142.065 830.882 126.704C831.733 123.178 837.369 122.002 840.408 125.622C845.027 131.123 849.186 129.835 854.427 126.808C863.218 121.734 873.416 124.306 882.884 122.461C892.932 120.504 886.34 116.173 885.045 112.438L885.225 112.215C893.13 113.834 900.997 115.679 908.953 116.978C913.164 117.666 916.131 117.768 917.438 111.176C920.276 96.8669 926.702 94.1684 942.412 95.6479C948.035 96.1769 953.47 95.2076 959.165 97.7235C962.454 99.1761 968.353 98.5371 969.266 92.6943C970.539 84.545 974.703 85.5949 980.842 87.3939C986.518 89.056 994.264 91.8995 994.184 80.4422C994.162 77.4403 997.873 76.8925 1000.48 76.3233C1011.93 73.8261 1022.61 68.5687 1034.96 69.1192C1046.3 69.624 1049.35 62.0976 1043.26 51.2901C1046.6 48.6426 1048.52 44.9828 1050.32 41.2317ZM687.036 264.382C675.084 266.493 666.975 273.702 662.107 284.091C659.728 289.168 657.655 293.722 652.395 296.222C650.642 297.054 647.087 296.576 647.516 298.864C647.852 300.647 651.439 300.274 653.362 299.602C662.996 296.243 672.584 293.099 682.911 292.202C688.553 291.711 693.617 292.522 698.533 294.772C703.366 296.985 702.746 301.555 703.012 305.894C703.221 309.266 705.861 312.077 709.236 312.252C720.052 312.808 730.357 321.977 741.814 313.987C743.581 312.754 747.423 313.009 749.577 314.064C761.493 319.915 774.239 315.855 786.486 317.539C792.485 318.363 794.617 312.491 795.766 308.136C797.17 302.809 792.847 302.701 788.699 302.414C785.106 302.164 781.379 299.157 778.114 299.715C766.869 301.638 761.918 296.968 761.206 286.174C761.064 283.994 759.74 281.916 757.031 282.289C755.208 282.541 755.366 284.542 754.676 285.868C750.694 293.532 740.386 294.847 735.456 288.328C733.96 286.352 733.829 281.108 731.657 282.198C720.462 287.815 715.511 277.421 708.052 273.812C703.154 271.441 700.109 270.571 699.618 277.681C699.358 281.465 697.242 286.241 692.975 284.985C686.845 283.18 692.285 278.93 692.548 275.721C692.954 270.912 696.434 264.511 687.036 264.382ZM729.75 205.476C737.212 205.866 736.594 205.474 739.626 200.697C746.744 189.476 743.922 178.384 740.206 167.208C739.161 164.064 739.578 158.256 733.815 160.31C729.428 161.876 726.681 166.983 729.525 170.847C739.135 183.918 726.49 190.228 721.319 198.133C718.086 203.076 711.588 208.089 706.1 198.753C705.297 197.386 703.447 196.28 702.147 197.569C701.216 198.492 700.845 200.595 701.106 202.01C702.819 211.284 710.125 209.308 716.37 209.324C721.187 209.338 724.24 203.13 729.75 205.476ZM818.533 270.727C816.256 261.853 803.668 262.621 801.807 252.439C801.383 250.116 798.209 256.005 795.951 257.712C792.375 260.416 788.763 261.224 786.548 256.778C784.736 253.14 782.786 250.954 779.634 254.275C776.03 258.072 771.764 261.992 772.457 268.122C772.897 272.018 775.894 274.242 779.185 273.525C789.518 271.275 799.087 272.719 808.842 276.559C812.929 278.165 817.405 276.237 818.533 270.727ZM808.348 354.961C804.968 355.691 804.836 358.148 804.659 360.836C804.138 368.671 809.771 373.228 813.914 378.563C815.794 380.982 817.725 385.308 820.831 383.984C825.315 382.073 822.491 377.669 821.642 374.345C820.034 368.029 815.378 363.411 812.116 358.019C811.369 356.779 809.753 356.065 808.348 354.961ZM0 216.448C13.5033 208.167 27.1759 200.249 42.2903 195.147C44.2182 194.497 46.8979 193.302 46.6885 190.972C46.4468 188.273 43.1898 189.446 41.4821 188.442C34.525 184.35 27.3128 180.615 20.7182 175.999C12.5716 170.296 12.9502 165.576 21.3385 160.466C23.1482 159.363 25.2775 158.791 27.2484 157.942C29.5065 156.967 34.1034 157.639 33.2012 154.307C32.4091 151.38 28.4808 154.145 25.9541 154.003C23.8302 153.885 21.5479 154.006 19.6334 153.257C15.9414 151.812 12.6844 149.06 13.3449 144.86C14.1854 139.514 18.9326 139.101 23.3818 139.05C25.3634 139.026 28.2043 141.348 29.085 138.867C29.9039 136.563 26.51 136.196 24.7996 135.087C12.0212 126.79 12.0695 124.76 24.9419 117.287C28.1989 115.397 31.2492 113.074 34.6673 111.563C44.3846 107.266 53.5167 104.664 64.9847 108.697C77.414 113.069 91.3926 112.814 104.504 115.518C120.77 118.871 136.215 118.949 152.803 114.734C168.737 110.684 185.817 113.697 201.798 119.317C203.718 119.991 206.181 121.688 207.673 119.459C209.024 117.443 207.375 115.255 205.568 114.038C202.87 112.226 200.402 110.703 199.717 106.944C198.941 102.686 196.423 101.735 193.139 105.266C189.246 109.452 184.56 109.377 179.781 107.296C174.888 105.167 171.148 102.041 174.534 96.1393C176.43 92.8339 178.505 89.8159 178.277 85.7372C177.955 80.0153 182.957 78.756 185.809 80.5872C194.984 86.4729 206.487 83.2105 215.807 90.412C223.47 96.3353 234.052 98.0726 244.161 91.9103C249.996 88.3552 256.153 87.5685 254.877 98.0591C254.383 102.132 255.75 106.579 258.768 108.177C267.054 112.561 274.006 115.942 262.21 124.521C259.737 126.32 261.577 129.708 264.654 130.581C268.322 131.62 273.582 132.342 274.003 127.665C274.497 122.185 276.398 119.21 280.676 116.049C287.654 110.894 286.481 107.747 277.518 107.653C270.236 107.575 267.742 100.03 262.261 97.0254C268.644 95.8762 271.152 88.2209 278.034 87.7484C281.779 87.4906 285.49 86.6797 289.209 86.0675C294.515 85.1948 298.148 82.5527 298.929 76.8549C299.327 73.9657 299.117 71.3021 295.704 70.6228C290.836 69.6562 286.556 66.7616 282.163 73.81C275.961 83.7583 263.671 75.4318 255.081 79.9884L252.856 74.0946C254.201 72.6662 254.351 71.2404 252.85 69.8146C253.954 64.0846 249.795 58.9185 252.574 52.493C257.235 41.7151 258.406 40.6142 267.803 46.5697C270.607 48.3473 274.194 50.3503 273.098 53.8007C271.63 58.4137 267.723 54.5042 264.93 54.6921C261.464 54.9257 258.126 55.2372 258.089 59.5871C258.051 63.8671 261.212 64.627 264.788 64.6055C268.555 64.584 272.333 64.9546 276.087 64.7532C283.012 64.3826 287.058 62.0332 281.492 54.8613C279.07 51.7385 275.961 48.2909 279.954 45.1386C284.11 41.8547 286.994 46.6261 289.008 49.1662C291.019 51.7036 298.073 51.7009 293.897 58.6741C292.633 60.7873 299.327 62.2292 302.745 63.0723C304.38 63.4751 305.988 62.4762 306.396 60.653C307.223 56.9503 305.459 54.4827 302.296 52.8045C301.795 52.5507 301.315 52.2581 300.86 51.9292C280.883 37.2471 281.122 32.6421 302.573 20.0168C306.284 17.8273 310.305 16.2123 314.5 15.2266C336.459 9.99064 358.962 8.47895 381.249 5.87172C390.563 4.78157 400.431 7.97145 409.985 9.59593C413.615 10.2135 419.96 11.7118 420.048 13.1268C420.309 17.2404 414.595 17.09 412.041 19.7161C410.592 21.209 407.888 22.2723 409.33 24.7802C410.976 27.6398 414.619 27.7767 416.193 25.6662C425.566 13.108 438.64 16.2845 451.499 15.4843C461.963 14.8345 472.531 13.4571 483.285 9.75703C495.126 5.68106 509.25 4.49962 522.555 3.43364C525.221 3.22152 528.65 4.73591 530.513 3.5491C546.608 -6.68649 560.065 8.54607 575.091 7.8211C576.882 7.73517 578.262 9.24954 577.688 11.0459C577.258 12.3884 575.867 14.3163 574.774 14.4049C567.267 15.0198 559.722 15.1809 552.193 15.5864C550.641 15.6696 549.11 16.1798 547.569 16.4939C548.482 19.128 550.823 18.2285 552.523 18.2258C568.604 18.1883 584.656 20.4598 600.788 18.5266C604.705 18.0567 610.384 17.4982 611.155 23.392C611.762 28.0291 606.832 28.9071 603.626 30.6659C592.101 36.992 579.251 42.5555 588.079 59.8207C589.183 61.9768 586.318 63.9691 586.366 65.6446C586.801 80.5335 573.786 92.1707 576.565 107.693C577.347 112.059 574.605 116.613 570.167 117.983C560.471 120.974 552.929 129.52 541.855 128.83C540.808 128.766 539.511 128.838 538.7 129.394C522.847 140.237 501.737 145.381 496.429 167.745C494.412 176.238 489.439 177.299 481.854 175.129C469.838 171.693 463.896 162.55 457.86 152.679C451.606 142.452 448.894 133.194 458.472 123.589C459.968 122.091 459.863 120.211 457.771 118.254C452.995 113.786 444.553 99.1466 443.285 94.2785C439.4 79.344 424.53 67.151 409.797 71.0873C393.517 75.4372 387.658 64.6001 379.482 56.0239C376.158 52.5387 379.071 50.1006 382.076 48.5997C386.375 46.4489 391.439 46.4623 395.603 43.4899C398.979 41.0814 399.207 39.0246 397.486 35.4803C395.67 31.7399 393.447 33.0556 390.988 34.0411C376.357 39.8999 363.371 47.0772 358.568 64.098C356.959 69.8039 352.454 74.4598 350.977 80.9954C349.707 86.6179 342.006 85.3372 336.813 86.1803C334.92 86.4891 331.642 84.6981 331.475 87.3187C331.352 89.2628 335.285 88.3337 336.972 89.303C348.641 95.9997 363.114 91.9237 374.762 100.358C384.036 107.073 394.964 110.593 399.478 123.218C401.68 129.381 410.216 131.609 416.644 134.311C419.648 135.573 424.006 136.547 420.725 140.433C418.155 143.475 416.936 150.77 410.063 147.145C407.748 145.924 406.024 143.601 403.981 141.84C402.794 140.817 401.186 139.45 399.867 140.604C398.412 141.877 399.83 143.461 400.842 144.613C402.265 146.235 404.005 147.607 405.267 149.334C407.571 152.486 413.607 155.434 408.884 159.776C405.321 163.055 400.834 168.331 394.8 165.501C382.914 159.929 372.264 150.956 357.703 153.544C356.323 153.788 354.967 151.96 354.943 150.201C354.913 148.233 356.315 147.427 358.068 147.288C360.751 147.073 363.589 147.465 366.097 146.718C372.981 144.667 377.21 136.158 374.759 130.025C371.91 122.902 354.65 114.618 346.479 115.555C340.688 116.221 344.468 118.501 344.076 120.963C342.973 127.901 348.501 138.897 333.733 139.49C328.489 139.702 332.641 144.023 334.754 145.98C338.593 149.538 347.575 150.099 346.522 155.281C345.521 160.222 336.765 153.039 332.326 158.071C330.479 160.165 327.034 160.383 324.827 158.581C316.165 151.514 310.934 158.85 305.403 163.232C288.949 176.271 289.628 183.477 308.73 192.682C313.05 194.763 317.032 197.894 321.656 199.019C333.701 201.954 343.964 206.443 346.99 220.223C347.524 222.65 350.521 227.048 354.143 223.649C356.135 221.778 356.149 218.658 354.61 216.399C349.892 209.472 350.784 204.875 358.877 201.333C362.488 199.754 361.39 195.595 359.878 192.709C357.19 187.58 358.221 182.17 357.974 176.845C357.346 163.192 365.015 158.195 377.31 164.682C381.985 167.149 387.363 170.044 389.981 174.257C394.374 181.327 397.827 184.992 406.328 179.721C411.854 176.295 415.785 181.555 417.57 185.835C421.477 195.198 428.622 201.229 435.893 207.692C441.43 212.613 450.191 217.033 444.977 227.567C443.291 230.969 447.098 231.721 449.184 233.128C452.809 235.574 456.201 238.283 457.006 242.95C457.377 245.095 455.988 248.878 455.725 248.674C449.791 244.08 442.705 248.454 436.868 246.113C432.932 244.534 432.711 240.361 434.185 236.291C436.449 230.037 433.171 230.198 428.509 231.353C425.411 232.121 421.995 232.612 418.883 232.142C407.665 230.453 408.296 234.266 411.706 243.213C414.732 251.153 417.831 250.532 423.475 247.345C426.114 245.855 428.893 246.191 430.128 249.286C431.302 252.227 429.47 255.666 427.228 256.029C418.816 257.393 411.947 267.529 401.954 260.403C398.946 258.26 393.893 259.887 393.377 262.28C391.337 271.774 383.335 274.274 376.735 278.632C375.489 279.454 374.579 281.137 374.034 282.614C369.177 295.712 362.236 306.922 350.727 315.727C344.879 320.2 344.501 327.979 350.502 334.409C353.447 337.564 354.28 341.92 350.311 344.191C346.38 346.439 345.827 340.797 343.467 339.052C340.951 337.191 338.824 334.49 337.229 331.748C332.528 323.672 325.308 322.802 317.617 325.267C312.91 326.776 308.365 327.917 303.459 327.92C293.803 327.925 285.184 327.447 287.423 342.559C288.259 348.195 280.198 354.526 287.571 361.722C292.941 366.961 297.793 369.447 304.568 365.218C306.853 363.792 308.99 362.12 311.302 360.737C314.669 358.72 318.858 357.174 322.069 359.163C326.996 362.219 322.171 366.061 320.869 368.712C316.68 377.253 317.505 381.678 328.226 381.589C333.945 381.544 337.138 385.367 337.27 390.99C337.393 396.258 335.159 402.882 341.896 404.917C348.923 407.039 357.843 407.758 363.326 403.376C375.129 393.943 386.759 395.941 399.448 399.918C402.861 400.986 406.405 401.491 409.974 401.725C430.558 403.083 441.886 422.524 460.784 427.115C467.228 449.417 490.258 445.97 505.085 455.231C508.928 457.631 513.863 458.864 518.02 461.428C526.035 466.379 528.244 472.735 522.163 480.197C516.081 487.659 514.507 496.399 511.919 505.235C507.663 519.759 505.042 536.535 484.163 537.856C478.535 538.214 475.611 543.509 473.946 549.161C467.266 571.844 464.852 574.237 440.345 583.705C438.444 584.44 437.894 585.192 438.517 586.937C442.367 597.715 434.986 600.65 427.175 601.381C419.874 602.065 419.501 608.136 416.603 612.089C411.394 619.196 410.181 628.876 402.415 634.52C401.932 634.872 402.474 637.995 403.401 638.706C408.422 642.559 406.196 645.043 403.003 649.054C392.413 662.372 392.604 663.103 402.115 676.958C403.634 679.17 406.572 680.819 401.801 682.425C388.901 686.764 376.792 680.765 371.905 667.923C368.092 657.907 367.866 646.963 370.53 637.6C376.091 618.047 375.28 597.729 380.006 577.902C383.622 562.723 386.541 545.837 386.783 529.312C386.936 518.972 382.812 511.011 374.622 506.17C365.557 500.81 360.477 493.281 357.061 483.899C356.154 481.408 354.524 479.184 353.377 476.768C350.351 470.391 338.328 468.283 345.228 456.992C348.961 450.886 347.32 442.001 354.196 436.953C358.624 433.704 358.85 428.979 359.105 423.955C359.379 418.587 358.084 416.375 352.18 415.8C341.501 414.764 330.307 413.612 327.676 399.66C327.104 396.628 323.474 396.296 321.07 395.81C308.665 393.288 298.881 385.053 284.542 384.529C272.441 384.089 256.131 377.948 249.991 361.83C247.279 354.711 244.244 349.537 233.023 351.809C223.846 353.667 217.89 342.124 214.776 333.76C209.918 320.723 202.993 310.713 191.778 301.737C179.654 292.036 176.325 276.097 176.631 260.607C176.84 250.022 177.643 240.004 166.258 234.245C163.834 233.017 162.84 231.044 162.505 227.876C161.17 215.309 160.139 214.606 146.794 213.545C142.501 213.204 142.67 209.558 141.091 206.9C131.384 190.569 119.057 178.478 98.4598 176.252C90.9952 175.444 86.4118 179.294 80.4535 180.446C74.1301 181.668 66.6038 178.719 70.7603 190.472C71.9874 193.947 66.5447 199.207 62.0929 197.768C53.9543 195.133 50.0771 199.494 45.9044 204.666C44.9109 205.898 43.6436 207.796 42.4433 207.842C27.6968 208.403 15.5064 218.182 0.945154 219.248L0 216.448ZM306.555 95.8976C303.91 96.3434 301.268 96.8642 299.434 99.0633C297.342 101.571 298.129 104.203 299.877 106.302C305.537 113.098 309.745 121.519 319.757 123.543C321.701 123.935 319.253 129.851 323.444 128.817C325.49 128.315 327.598 125.281 328.339 122.963C329.295 119.975 326.575 117.891 324.04 117.266C315.354 115.123 312.287 108.971 311.356 100.927C311.036 98.1799 310.198 95.6238 306.555 95.8976Z" fill="#C1856D" stroke="black" stroke-width="10" mask="url(#path-1-inside-1_297_18)"/>
<mask id="path-2-inside-2_297_18" fill="white">
<path d="M1208.89 495.534C1208.75 487.613 1209.05 480.831 1200.54 478.776C1199.5 478.527 1197.61 477.963 1197.64 477.721C1199.52 461.339 1185.09 463.982 1176.71 459.543C1174.85 458.56 1173.3 456.89 1171.84 455.319C1169.23 452.508 1166.2 449.055 1169.21 445.441C1172.73 441.204 1178.37 442.616 1180.26 446.426C1184.21 454.401 1189.11 452.033 1195.88 451.434C1210.89 450.105 1222.93 458.142 1231.11 469.983C1234.28 474.582 1243.2 479.735 1240.44 482.785C1236.03 487.645 1230.36 480.218 1225.36 477.694C1221.33 475.664 1217.82 476.674 1215.16 479.757C1212.2 483.199 1214.17 486.609 1215.85 490.188C1224.05 507.625 1236.1 522.431 1247.61 537.618C1258.33 551.752 1258.93 559.558 1250.34 574.959C1248.75 577.803 1247.12 580.63 1245.77 583.592C1235.4 606.353 1218.21 609.159 1200.57 592.458C1192.23 584.556 1182.18 578.367 1172.52 571.987C1166.49 568.008 1160.32 569.917 1154.24 573.3C1144.35 578.804 1133.99 582.714 1122.41 583.86C1109.75 585.112 1109.61 585.829 1107.83 573.023C1106.29 562.012 1099.71 552.402 1101.24 540.265C1102.45 530.575 1106.1 525.763 1115.06 523.217C1122.47 521.115 1129.41 519.767 1133 509.709C1134.98 504.132 1145.48 498.536 1154.21 498.947C1159.3 499.186 1162.15 498.399 1164.69 494.071C1168.69 487.28 1175.55 488.037 1182.05 488.526C1186.29 488.843 1189.84 490.776 1188.79 495.574C1186.44 506.393 1193.4 510.004 1201.36 509.569C1210.49 509.067 1208.02 500.228 1208.89 495.534ZM717.67 36.1249C712.469 37.4084 705.388 31.8556 702.086 39.833C698.694 48.0252 708.13 50.1625 710.423 55.7663C711.701 58.8864 714.448 60.6452 716.985 62.6617C721.561 66.2973 726.41 66.8558 729.366 61.6467C733.92 53.6183 738.863 53.4787 745.514 58.6529C747.238 59.9927 749.647 59.7027 751.47 58.1964C752.831 57.0713 753.578 55.0065 752.219 53.9915C737.899 43.3048 750.71 45.1173 756.862 43.4445C759.353 42.7651 761.622 41.0816 763.835 39.6155C765.081 38.7912 766.818 37.5131 766.874 36.3719C766.958 34.6588 764.823 34.4172 763.33 34.3178C755.833 33.8238 748.796 30.164 740.303 31.383C732.626 29.7719 725.433 34.2077 717.67 36.1249ZM241.699 64.5493C239.188 61.7407 235.317 61.0748 233.773 64.8581C227.753 79.6046 220.422 68.4293 215.852 64.9306C203.665 55.6053 198.418 55.1031 188.072 65.1185C183.588 69.4603 183.306 72.1831 190.019 73.5256C198.966 75.3139 207.375 77.8862 215.468 82.6979C225.272 88.5272 245.002 83.1463 252.853 74.0948C254.198 72.6664 254.349 71.2406 252.848 69.8148C248.114 70.2068 244.755 67.9675 241.699 64.5493ZM1082.89 438.334C1082.31 438.747 1082.21 440.42 1082.48 441.344C1084.55 448.652 1086.75 455.985 1095.48 458.093C1103.02 459.916 1108.54 457.87 1113.33 451.064C1119.34 442.536 1116.61 432.413 1120.05 423.469C1121.32 420.166 1117.08 418.416 1111.51 418.378C1102.86 424.376 1092.82 431.282 1082.89 438.334ZM851.753 492.438C845.032 497.161 835.715 500.856 832.262 508.041C828.285 516.319 826.851 526.335 827.426 536.025C827.627 539.427 829.421 542.145 833.108 542.8C837.57 543.595 842.871 543.302 844.146 538.727C847.682 526.053 854.535 514.426 856.28 502.016C854.779 497.8 856.183 489.324 851.753 492.438ZM885.233 112.242C874.12 99.9013 874.133 97.2995 886.74 86.8356C894.177 80.6626 902.292 75.526 911.963 73.2436C916.093 72.269 920.126 70.6955 923.998 68.9394C925.029 68.4722 925.864 66.3 925.797 64.9628C925.666 62.4308 923.563 61.1178 921.275 61.679C900.447 66.7726 879.605 71.8931 866.113 90.9009C860.718 98.4997 862.574 106.762 870.828 110.873C875.352 113.125 880.258 112.406 885.053 112.462L885.233 112.242ZM1323.84 632.761C1327.72 623.388 1334.8 617.513 1342.66 611.67C1352.21 604.579 1351.53 599.455 1341.68 591.65C1339.59 590.001 1337.51 587.297 1334.82 588.527C1331.56 590.012 1333.63 593.124 1334.06 595.597C1335.3 602.745 1334.34 607.632 1326.49 611.78C1319.83 615.306 1315.08 622.81 1310.08 629.026C1306.14 633.924 1308.27 639.106 1314.4 639.461C1318.61 639.517 1322.23 636.641 1323.84 632.761ZM1208.78 276.787C1206.62 275.542 1204.34 275.979 1203.21 278.017C1196.34 290.385 1184.89 296.426 1172.42 301.517C1167.32 303.598 1163.76 307.889 1164.03 314.07C1164.13 316.46 1165.46 318.567 1167.96 317.456C1179.36 312.392 1191.12 307.841 1201.74 301.431C1208.14 297.575 1210.3 289.456 1211.78 283.156C1211.95 279.591 1210.74 277.912 1208.78 276.787ZM1034.98 27.4198C1027.25 22.3745 1022.48 27.1781 1019.59 33.1525C1016.59 39.3658 1018.78 44.8488 1026.07 46.9378C1031.75 48.5676 1037.53 49.8726 1043.27 51.3225C1046.6 48.6455 1048.52 44.9857 1050.32 41.2346C1046.77 34.8844 1040.82 31.23 1034.98 27.4198ZM1193.41 73.1228C1190.23 78.7051 1197.02 79.5563 1199.43 82.5099C1200.44 83.7504 1201.57 84.9051 1202.43 86.2395C1204.85 89.9853 1207.76 93.9109 1212.59 92.332C1218.56 90.38 1211.18 85.9495 1213.51 82.9154C1214.79 81.2452 1215.87 79.4086 1217.23 77.811C1220.45 74.0277 1218.32 71.9575 1214.78 70.9828C1211.74 70.1451 1208.46 70.1343 1206.34 69.8846C1201.08 70.3357 1195.74 69.0281 1193.41 73.1228ZM1132.78 400.28C1138 404.791 1142.75 401.204 1145.39 398.014C1148.25 394.564 1145.09 390.558 1140.91 389.728C1133.35 388.227 1132.89 384.527 1135.52 378.193C1136.63 375.505 1133.45 373.198 1130.9 372.508C1127.49 371.585 1126.27 374.659 1125.43 377.138C1124.74 379.13 1124.82 381.385 1124.56 383.523C1124.03 390.74 1127.62 395.823 1132.78 400.28ZM1120.07 452.336C1120.46 457.126 1121.14 463.984 1126.35 465.176C1129.16 465.821 1136.34 463.286 1135.87 456.971C1135.52 452.347 1134.43 447.232 1127.96 446.553C1124.1 446.741 1119.71 448.054 1120.07 452.336Z"/>
</mask>
<path d="M1208.89 495.534C1208.75 487.613 1209.05 480.831 1200.54 478.776C1199.5 478.527 1197.61 477.963 1197.64 477.721C1199.52 461.339 1185.09 463.982 1176.71 459.543C1174.85 458.56 1173.3 456.89 1171.84 455.319C1169.23 452.508 1166.2 449.055 1169.21 445.441C1172.73 441.204 1178.37 442.616 1180.26 446.426C1184.21 454.401 1189.11 452.033 1195.88 451.434C1210.89 450.105 1222.93 458.142 1231.11 469.983C1234.28 474.582 1243.2 479.735 1240.44 482.785C1236.03 487.645 1230.36 480.218 1225.36 477.694C1221.33 475.664 1217.82 476.674 1215.16 479.757C1212.2 483.199 1214.17 486.609 1215.85 490.188C1224.05 507.625 1236.1 522.431 1247.61 537.618C1258.33 551.752 1258.93 559.558 1250.34 574.959C1248.75 577.803 1247.12 580.63 1245.77 583.592C1235.4 606.353 1218.21 609.159 1200.57 592.458C1192.23 584.556 1182.18 578.367 1172.52 571.987C1166.49 568.008 1160.32 569.917 1154.24 573.3C1144.35 578.804 1133.99 582.714 1122.41 583.86C1109.75 585.112 1109.61 585.829 1107.83 573.023C1106.29 562.012 1099.71 552.402 1101.24 540.265C1102.45 530.575 1106.1 525.763 1115.06 523.217C1122.47 521.115 1129.41 519.767 1133 509.709C1134.98 504.132 1145.48 498.536 1154.21 498.947C1159.3 499.186 1162.15 498.399 1164.69 494.071C1168.69 487.28 1175.55 488.037 1182.05 488.526C1186.29 488.843 1189.84 490.776 1188.79 495.574C1186.44 506.393 1193.4 510.004 1201.36 509.569C1210.49 509.067 1208.02 500.228 1208.89 495.534ZM717.67 36.1249C712.469 37.4084 705.388 31.8556 702.086 39.833C698.694 48.0252 708.13 50.1625 710.423 55.7663C711.701 58.8864 714.448 60.6452 716.985 62.6617C721.561 66.2973 726.41 66.8558 729.366 61.6467C733.92 53.6183 738.863 53.4787 745.514 58.6529C747.238 59.9927 749.647 59.7027 751.47 58.1964C752.831 57.0713 753.578 55.0065 752.219 53.9915C737.899 43.3048 750.71 45.1173 756.862 43.4445C759.353 42.7651 761.622 41.0816 763.835 39.6155C765.081 38.7912 766.818 37.5131 766.874 36.3719C766.958 34.6588 764.823 34.4172 763.33 34.3178C755.833 33.8238 748.796 30.164 740.303 31.383C732.626 29.7719 725.433 34.2077 717.67 36.1249ZM241.699 64.5493C239.188 61.7407 235.317 61.0748 233.773 64.8581C227.753 79.6046 220.422 68.4293 215.852 64.9306C203.665 55.6053 198.418 55.1031 188.072 65.1185C183.588 69.4603 183.306 72.1831 190.019 73.5256C198.966 75.3139 207.375 77.8862 215.468 82.6979C225.272 88.5272 245.002 83.1463 252.853 74.0948C254.198 72.6664 254.349 71.2406 252.848 69.8148C248.114 70.2068 244.755 67.9675 241.699 64.5493ZM1082.89 438.334C1082.31 438.747 1082.21 440.42 1082.48 441.344C1084.55 448.652 1086.75 455.985 1095.48 458.093C1103.02 459.916 1108.54 457.87 1113.33 451.064C1119.34 442.536 1116.61 432.413 1120.05 423.469C1121.32 420.166 1117.08 418.416 1111.51 418.378C1102.86 424.376 1092.82 431.282 1082.89 438.334ZM851.753 492.438C845.032 497.161 835.715 500.856 832.262 508.041C828.285 516.319 826.851 526.335 827.426 536.025C827.627 539.427 829.421 542.145 833.108 542.8C837.57 543.595 842.871 543.302 844.146 538.727C847.682 526.053 854.535 514.426 856.28 502.016C854.779 497.8 856.183 489.324 851.753 492.438ZM885.233 112.242C874.12 99.9013 874.133 97.2995 886.74 86.8356C894.177 80.6626 902.292 75.526 911.963 73.2436C916.093 72.269 920.126 70.6955 923.998 68.9394C925.029 68.4722 925.864 66.3 925.797 64.9628C925.666 62.4308 923.563 61.1178 921.275 61.679C900.447 66.7726 879.605 71.8931 866.113 90.9009C860.718 98.4997 862.574 106.762 870.828 110.873C875.352 113.125 880.258 112.406 885.053 112.462L885.233 112.242ZM1323.84 632.761C1327.72 623.388 1334.8 617.513 1342.66 611.67C1352.21 604.579 1351.53 599.455 1341.68 591.65C1339.59 590.001 1337.51 587.297 1334.82 588.527C1331.56 590.012 1333.63 593.124 1334.06 595.597C1335.3 602.745 1334.34 607.632 1326.49 611.78C1319.83 615.306 1315.08 622.81 1310.08 629.026C1306.14 633.924 1308.27 639.106 1314.4 639.461C1318.61 639.517 1322.23 636.641 1323.84 632.761ZM1208.78 276.787C1206.62 275.542 1204.34 275.979 1203.21 278.017C1196.34 290.385 1184.89 296.426 1172.42 301.517C1167.32 303.598 1163.76 307.889 1164.03 314.07C1164.13 316.46 1165.46 318.567 1167.96 317.456C1179.36 312.392 1191.12 307.841 1201.74 301.431C1208.14 297.575 1210.3 289.456 1211.78 283.156C1211.95 279.591 1210.74 277.912 1208.78 276.787ZM1034.98 27.4198C1027.25 22.3745 1022.48 27.1781 1019.59 33.1525C1016.59 39.3658 1018.78 44.8488 1026.07 46.9378C1031.75 48.5676 1037.53 49.8726 1043.27 51.3225C1046.6 48.6455 1048.52 44.9857 1050.32 41.2346C1046.77 34.8844 1040.82 31.23 1034.98 27.4198ZM1193.41 73.1228C1190.23 78.7051 1197.02 79.5563 1199.43 82.5099C1200.44 83.7504 1201.57 84.9051 1202.43 86.2395C1204.85 89.9853 1207.76 93.9109 1212.59 92.332C1218.56 90.38 1211.18 85.9495 1213.51 82.9154C1214.79 81.2452 1215.87 79.4086 1217.23 77.811C1220.45 74.0277 1218.32 71.9575 1214.78 70.9828C1211.74 70.1451 1208.46 70.1343 1206.34 69.8846C1201.08 70.3357 1195.74 69.0281 1193.41 73.1228ZM1132.78 400.28C1138 404.791 1142.75 401.204 1145.39 398.014C1148.25 394.564 1145.09 390.558 1140.91 389.728C1133.35 388.227 1132.89 384.527 1135.52 378.193C1136.63 375.505 1133.45 373.198 1130.9 372.508C1127.49 371.585 1126.27 374.659 1125.43 377.138C1124.74 379.13 1124.82 381.385 1124.56 383.523C1124.03 390.74 1127.62 395.823 1132.78 400.28ZM1120.07 452.336C1120.46 457.126 1121.14 463.984 1126.35 465.176C1129.16 465.821 1136.34 463.286 1135.87 456.971C1135.52 452.347 1134.43 447.232 1127.96 446.553C1124.1 446.741 1119.71 448.054 1120.07 452.336Z" fill="#C1856D" stroke="black" stroke-width="10" mask="url(#path-2-inside-2_297_18)"/>
<path d="M690.713 339.72L689.64 341.262L688.034 340.287C687.731 340.104 687.384 340.004 687.029 339.999C686.675 339.994 686.325 340.083 686.017 340.257C685.708 340.432 685.451 340.685 685.273 340.991C685.094 341.297 685 341.645 685 342V344H683C682.735 344 682.48 344.105 682.293 344.293C682.105 344.48 682 344.735 682 345C682 345.265 682.105 345.52 682.293 345.707C682.48 345.895 682.735 346 683 346H694C694.688 346 695.365 345.822 695.964 345.484C696.563 345.147 697.065 344.66 697.422 344.071C697.778 343.482 697.976 342.812 697.998 342.124C698.019 341.436 697.863 340.755 697.543 340.145C697.224 339.535 696.753 339.018 696.176 338.644C695.599 338.27 694.935 338.05 694.248 338.008C693.561 337.965 692.875 338.1 692.256 338.4C691.637 338.7 691.105 339.155 690.713 339.72ZM694 336C695.591 336 697.117 336.632 698.243 337.757C699.368 338.883 700 340.409 700 342C700 343.591 699.368 345.117 698.243 346.243C697.117 347.368 695.591 348 694 348H683C682.204 348 681.441 347.684 680.879 347.121C680.316 346.559 680 345.796 680 345C680 344.204 680.316 343.441 680.879 342.879C681.441 342.316 682.204 342 683 342C683 341.291 683.188 340.594 683.546 339.982C683.904 339.369 684.418 338.863 685.035 338.515C685.653 338.166 686.353 337.989 687.062 338C687.771 338.011 688.464 338.21 689.071 338.577C689.624 337.782 690.361 337.132 691.219 336.683C692.077 336.234 693.031 336 694 336Z" fill="black"/>
</g>
<defs>
<filter id="filter0_d_297_18" x="0" y="0" width="1384" height="687.825" filterUnits="userSpaceOnUse" color-interpolation-filters="sRGB">
<feFlood flood-opacity="0" result="BackgroundImageFix"/>
<feColorMatrix in="SourceAlpha" type="matrix" values="0 0 0 0 0 0 0 0 0 0 0 0 0 0 0 0 0 0 127 0" result="hardAlpha"/>
<feOffset dx="4" dy="4"/>
<feComposite in2="hardAlpha" operator="out"/>
<feColorMatrix type="matrix" values="0 0 0 0 0.756863 0 0 0 0 0.521569 0 0 0 0 0.427451 0 0 0 1 0"/>
<feBlend mode="normal" in2="BackgroundImageFix" result="effect1_dropShadow_297_18"/>
<feBlend mode="normal" in="SourceGraphic" in2="effect1_dropShadow_297_18" result="shape"/>
</filter>
</defs>
</svg>
