<svg width="366" height="540" viewBox="0 0 366 540" fill="none" xmlns="http://www.w3.org/2000/svg">
<g filter="url(#filter0_d_68_558)">
<path d="M183 331C282.411 331 363 306.823 363 277C363 247.177 282.411 223 183 223C83.5887 223 3 247.177 3 277C3 306.823 83.5887 331 183 331Z" fill="#9A3F3F" stroke="black" stroke-width="5"/>
<path d="M183 529C197.021 529.101 210.75 525.001 222.42 517.228C225.01 515.403 226.853 512.704 227.61 509.628C228.368 506.553 227.988 503.306 226.542 500.488C220.314 488.644 206.94 475 183 475C159.06 475 145.686 488.68 139.458 500.47C138.012 503.288 137.632 506.535 138.39 509.611C139.147 512.686 140.991 515.385 143.58 517.21C154.38 524.59 168.096 529 183 529Z" fill="#9A3F3F" stroke="black" stroke-width="5" stroke-linejoin="round"/>
<path d="M183 475V331V475Z" fill="#9A3F3F"/>
<path d="M183 475V331" stroke="black" stroke-width="5" stroke-linecap="round" stroke-linejoin="round"/>
</g>
<g filter="url(#filter1_d_68_558)">
<path d="M242.683 70.0287C246.634 70.0287 250.423 68.4592 253.217 65.6655C256.011 62.8718 257.58 59.0827 257.58 55.1318C257.58 51.1808 256.011 47.3918 253.217 44.598C250.423 41.8043 246.634 40.2348 242.683 40.2348C238.732 40.2348 234.943 41.8043 232.15 44.598C229.356 47.3918 227.786 51.1808 227.786 55.1318C227.786 59.0827 229.356 62.8718 232.15 65.6655C234.943 68.4592 238.732 70.0287 242.683 70.0287ZM242.683 77.4772V122.168V77.4772ZM242.683 148.238C267.71 148.238 276.946 138.301 276.946 118.444C251.919 118.444 242.683 128.38 242.683 148.238ZM242.683 148.238C217.656 148.238 208.42 138.301 208.42 118.444C233.447 118.444 242.683 128.38 242.683 148.238Z" fill="#FFB2D4"/>
<path d="M242.683 77.4772V122.168M242.683 148.238C267.71 148.238 276.946 138.301 276.946 118.444C251.919 118.444 242.683 128.38 242.683 148.238ZM242.683 148.238C217.656 148.238 208.42 138.301 208.42 118.444C233.447 118.444 242.683 128.38 242.683 148.238ZM242.683 70.0287C246.634 70.0287 250.423 68.4592 253.217 65.6655C256.011 62.8718 257.58 59.0827 257.58 55.1318C257.58 51.1808 256.011 47.3918 253.217 44.598C250.423 41.8043 246.634 40.2348 242.683 40.2348C238.732 40.2348 234.943 41.8043 232.15 44.598C229.356 47.3918 227.786 51.1808 227.786 55.1318C227.786 59.0827 229.356 62.8718 232.15 65.6655C234.943 68.4592 238.732 70.0287 242.683 70.0287Z" stroke="black" stroke-width="5" stroke-linecap="round" stroke-linejoin="round"/>
<path d="M237.261 37.181C237.261 37.181 227.786 25.1815 227.786 19.1855C227.786 10.2995 234.639 3 242.691 3C250.742 3 257.595 10.2995 257.595 19.1855C257.595 25.1815 248.113 37.1959 248.113 37.1959M249.841 38.2908C249.841 38.2908 260.455 26.9915 265.185 23.9898C272.201 19.5505 281.385 22.4182 285.415 30.0677C289.437 37.7173 287.106 47.8845 280.089 52.3312C275.367 55.3255 262.705 56.0405 262.705 56.0405M262.705 58.2304C262.705 58.2304 275.367 58.9454 280.097 61.9397C287.106 66.3864 289.437 76.5462 285.415 84.2032C281.393 91.8602 272.201 94.7204 265.185 90.2811C260.455 87.2794 249.841 75.9801 249.841 75.9801M235.54 75.9801C235.54 75.9801 224.926 87.2794 220.196 90.2811C213.18 94.7204 203.996 91.8528 199.966 84.2032C195.944 76.5536 198.275 66.3864 205.292 61.9397C210.022 58.9454 222.677 58.2304 222.677 58.2304M222.677 56.0405C222.677 56.0405 210.014 55.3255 205.292 52.3312C198.275 47.8845 195.944 37.7173 199.966 30.0677C203.988 22.4182 213.18 19.5505 220.196 23.9898C224.926 26.9915 235.54 38.2908 235.54 38.2908" fill="#FFB2D4"/>
<path d="M237.261 37.181C237.261 37.181 227.786 25.1815 227.786 19.1855C227.786 10.2995 234.639 3 242.691 3C250.742 3 257.595 10.2995 257.595 19.1855C257.595 25.1815 248.113 37.1959 248.113 37.1959M249.841 38.2908C249.841 38.2908 260.455 26.9915 265.185 23.9898C272.201 19.5505 281.385 22.4182 285.415 30.0677C289.437 37.7173 287.106 47.8845 280.089 52.3312C275.367 55.3255 262.705 56.0405 262.705 56.0405M262.705 58.2304C262.705 58.2304 275.367 58.9454 280.097 61.9397C287.106 66.3864 289.437 76.5462 285.415 84.2032C281.393 91.8602 272.201 94.7204 265.185 90.2811C260.455 87.2794 249.841 75.9801 249.841 75.9801M235.54 75.9801C235.54 75.9801 224.926 87.2794 220.196 90.2811C213.18 94.7204 203.996 91.8528 199.966 84.2032C195.944 76.5536 198.275 66.3864 205.292 61.9397C210.022 58.9454 222.677 58.2304 222.677 58.2304M222.677 56.0405C222.677 56.0405 210.014 55.3255 205.292 52.3312C198.275 47.8845 195.944 37.7173 199.966 30.0677C203.988 22.4182 213.18 19.5505 220.196 23.9898C224.926 26.9915 235.54 38.2908 235.54 38.2908" stroke="black" stroke-width="5" stroke-linecap="round" stroke-linejoin="round"/>
</g>
<g filter="url(#filter2_d_68_558)">
<path d="M254 150.975C246 166.84 248.412 195.612 254 202.538C264.602 215.678 274 222.37 274 234.269C274 242.202 270 254.101 262 262.034V266H222V262.034C214 254.102 210 242.202 210 234.269C210 222.37 219.399 215.678 230 202.538C235.587 195.612 238 166.84 230 150.975C242 147.008 242 147.008 254 150.975Z" fill="#C1856D"/>
<path d="M242 145.5C245.497 145.5 248.945 146.672 254.784 148.602C255.475 148.83 256.033 149.347 256.311 150.02C256.588 150.691 256.56 151.451 256.232 152.101C252.5 159.502 251.107 170.183 251.403 180.034C251.55 184.922 252.11 189.501 252.956 193.238C253.824 197.072 254.922 199.7 255.945 200.968C258.551 204.198 261.087 207.035 263.464 209.702C265.823 212.349 268.056 214.86 269.961 217.35C273.807 222.376 276.5 227.552 276.5 234.269C276.5 242.574 272.508 254.642 264.5 263.053V266C264.5 267.381 263.381 268.5 262 268.5H222C220.619 268.5 219.5 267.381 219.5 266V263.053C211.492 254.642 207.5 242.574 207.5 234.269C207.5 227.552 210.193 222.376 214.039 217.35C215.944 214.86 218.177 212.349 220.536 209.702C222.913 207.035 225.449 204.198 228.055 200.968C229.078 199.7 230.176 197.072 231.044 193.238C231.89 189.501 232.45 184.922 232.597 180.034C232.893 170.183 231.5 159.502 227.768 152.101C227.44 151.451 227.412 150.691 227.689 150.02C227.967 149.347 228.525 148.83 229.216 148.602C235.055 146.672 238.503 145.5 242 145.5Z" stroke="black" stroke-width="5" stroke-linejoin="round"/>
</g>
<defs>
<filter id="filter0_d_68_558" x="0.5" y="220.5" width="365" height="319.002" filterUnits="userSpaceOnUse" color-interpolation-filters="sRGB">
<feFlood flood-opacity="0" result="BackgroundImageFix"/>
<feColorMatrix in="SourceAlpha" type="matrix" values="0 0 0 0 0 0 0 0 0 0 0 0 0 0 0 0 0 0 127 0" result="hardAlpha"/>
<feOffset dy="8"/>
<feComposite in2="hardAlpha" operator="out"/>
<feColorMatrix type="matrix" values="0 0 0 0 0.603922 0 0 0 0 0.247059 0 0 0 0 0.247059 0 0 0 1 0"/>
<feBlend mode="normal" in2="BackgroundImageFix" result="effect1_dropShadow_68_558"/>
<feBlend mode="normal" in="SourceGraphic" in2="effect1_dropShadow_68_558" result="shape"/>
</filter>
<filter id="filter1_d_68_558" x="195.504" y="0.5" width="98.3745" height="154.238" filterUnits="userSpaceOnUse" color-interpolation-filters="sRGB">
<feFlood flood-opacity="0" result="BackgroundImageFix"/>
<feColorMatrix in="SourceAlpha" type="matrix" values="0 0 0 0 0 0 0 0 0 0 0 0 0 0 0 0 0 0 127 0" result="hardAlpha"/>
<feOffset dx="4" dy="4"/>
<feComposite in2="hardAlpha" operator="out"/>
<feColorMatrix type="matrix" values="0 0 0 0 1 0 0 0 0 0.698039 0 0 0 0 0.831373 0 0 0 1 0"/>
<feBlend mode="normal" in2="BackgroundImageFix" result="effect1_dropShadow_68_558"/>
<feBlend mode="normal" in="SourceGraphic" in2="effect1_dropShadow_68_558" result="shape"/>
</filter>
<filter id="filter2_d_68_558" x="205" y="143" width="78" height="132" filterUnits="userSpaceOnUse" color-interpolation-filters="sRGB">
<feFlood flood-opacity="0" result="BackgroundImageFix"/>
<feColorMatrix in="SourceAlpha" type="matrix" values="0 0 0 0 0 0 0 0 0 0 0 0 0 0 0 0 0 0 127 0" result="hardAlpha"/>
<feOffset dx="4" dy="4"/>
<feComposite in2="hardAlpha" operator="out"/>
<feColorMatrix type="matrix" values="0 0 0 0 0.756863 0 0 0 0 0.521569 0 0 0 0 0.427451 0 0 0 1 0"/>
<feBlend mode="normal" in2="BackgroundImageFix" result="effect1_dropShadow_68_558"/>
<feBlend mode="normal" in="SourceGraphic" in2="effect1_dropShadow_68_558" result="shape"/>
</filter>
</defs>
</svg>
