<svg width="67" height="60" viewBox="0 0 67 60" fill="none" xmlns="http://www.w3.org/2000/svg">
<path d="M23.8222 0C25.862 0 27.7335 0.749269 29.0959 2.13366C30.4582 3.51951 31.2667 5.49805 31.2667 7.88488C31.2667 10.26 30.4686 12.6439 29.1673 14.4483C27.872 16.2439 25.996 17.561 23.8222 17.561C21.6484 17.561 19.7724 16.2439 18.4771 14.4483C17.1758 12.6439 16.3778 10.26 16.3778 7.88634C16.3778 5.49805 17.1862 3.51951 18.5501 2.13366C19.9109 0.749269 21.7824 0 23.8222 0ZM7.44444 13.1707C9.48422 13.1707 11.3558 13.92 12.7181 15.3044C14.0804 16.6902 14.8889 18.6688 14.8889 21.0556C14.8889 23.4307 14.0908 25.8146 12.7896 27.619C11.4942 29.4146 9.61822 30.7317 7.44444 30.7317C5.27067 30.7317 3.39467 29.4146 2.09933 27.619C0.798045 25.8146 0 23.4293 0 21.0571C0 18.6688 0.808467 16.6902 2.17229 15.3044C3.53313 13.92 5.40467 13.1707 7.44444 13.1707ZM33.5 23.4146C22.8932 23.4146 14.1057 32.2902 11.3394 43.4195C10.1125 48.3571 11.9841 53.6532 16.5996 56.1629C20.2668 58.159 25.7548 60 33.4985 60C41.2437 60 46.7318 58.159 50.4004 56.1629C55.0144 53.6532 56.886 48.3571 55.6591 43.421C52.8943 32.2902 44.1054 23.4146 33.5 23.4146ZM59.5556 13.1707C57.5158 13.1707 55.6442 13.92 54.2834 15.3044C52.9196 16.6902 52.1111 18.6688 52.1111 21.0556C52.1111 23.4307 52.9092 25.8146 54.2104 27.619C55.5058 29.4146 57.3818 30.7317 59.5556 30.7317C61.7293 30.7317 63.6053 29.4146 64.9007 27.619C66.202 25.8146 67 23.4307 67 21.0571C67 18.6688 66.1915 16.6902 64.8292 15.3044C63.4669 13.92 61.5953 13.1707 59.5556 13.1707ZM43.1778 0C41.138 0 39.2665 0.749269 37.9056 2.13366C36.5418 3.51951 35.7333 5.49805 35.7333 7.88488C35.7333 10.26 36.5314 12.6439 37.8327 14.4483C39.128 16.2439 41.004 17.561 43.1778 17.561C45.3516 17.561 47.2276 16.2439 48.5229 14.4483C49.8242 12.6439 50.6222 10.26 50.6222 7.88634C50.6222 5.49805 49.8138 3.51951 48.4514 2.13366C47.0891 0.749269 45.2176 0 43.1778 0Z" fill="#9A3F3F"/>
</svg>
